<svg xmlns="http://www.w3.org/2000/svg" viewBox="0 0 762.589 201.333">
  <defs>
    <style>
      .cls-1 {
        fill: #e2a037;
      }

      .cls-2 {
        fill: #2c46d6;
      }
    </style>
  </defs>
  <g id="Group_1" data-name="Group 1" transform="matrix(0.875, 0.485, -0.485, 0.875, 129.64, -414.898)">
    <ellipse id="body" class="cls-1" cx="94.054" cy="379.711" rx="94.054" ry="379.711" transform="translate(751.864 57.61) rotate(60)"/>
    <path id="blue_eclipse" data-name="blue eclipse" class="cls-2" d="M461.429,89.463c-5.522-7.392,8.517-30.84,31.354-52.369S538.614,4.1,544.136,11.5s-8.516,30.838-31.356,52.369c-18.134,17.094-36.365,27.841-45.87,27.842C464.444,91.709,462.566,90.986,461.429,89.463Zm-93.327,0c-5.522-7.392,8.517-30.84,31.356-52.369S445.287,4.1,450.809,11.5s-8.517,30.838-31.356,52.369c-18.134,17.094-36.365,27.841-45.87,27.842C371.117,91.709,369.239,90.986,368.1,89.463Zm-94.241,0c-5.522-7.392,8.517-30.84,31.356-52.369S351.046,4.1,356.567,11.5s-8.517,30.838-31.356,52.369c-18.134,17.094-36.365,27.841-45.87,27.842C276.876,91.709,275,90.986,273.861,89.463Zm-91.5-9.252c-5.522-7.392,8.517-30.838,31.356-52.369s45.829-32.99,51.351-25.6-8.517,30.84-31.356,52.369c-18.134,17.094-36.365,27.841-45.87,27.842C185.379,82.457,183.5,81.734,182.364,80.211Zm-97.9,0c-5.522-7.392,8.517-30.838,31.356-52.369s45.829-32.99,51.351-25.6-8.517,30.84-31.356,52.369c-18.134,17.094-36.365,27.841-45.87,27.842C87.477,82.457,85.6,81.734,84.462,80.211Zm-83.261,0C-4.32,72.819,9.716,49.373,32.555,27.842s45.831-32.99,51.353-25.6-8.517,30.84-31.356,52.369C34.418,71.709,16.187,82.456,6.682,82.457,4.216,82.457,2.339,81.734,1.2,80.211Z" transform="translate(204.78 434.041) rotate(-30)"/>
  </g>
</svg>
