<svg xmlns="http://www.w3.org/2000/svg" viewBox="0 0 320 415" id="el_rJyRe28hQ"><style>@-webkit-keyframes el_ryxyRgnInX_Hyow-nU2X_Animation{0%{-webkit-transform: translate(0.004058837890625px, -0.4489898681640625px) translate(-0.004058837890625px, 0.4489898681640625px) translate(0px, 0px);transform: translate(0.004058837890625px, -0.4489898681640625px) translate(-0.004058837890625px, 0.4489898681640625px) translate(0px, 0px);}33.33%{-webkit-transform: translate(0.004058837890625px, -0.4489898681640625px) translate(-0.004058837890625px, 0.4489898681640625px) translate(20px, 0px);transform: translate(0.004058837890625px, -0.4489898681640625px) translate(-0.004058837890625px, 0.4489898681640625px) translate(20px, 0px);}66.67%{-webkit-transform: translate(0.004058837890625px, -0.4489898681640625px) translate(-0.004058837890625px, 0.4489898681640625px) translate(0px, 0px);transform: translate(0.004058837890625px, -0.4489898681640625px) translate(-0.004058837890625px, 0.4489898681640625px) translate(0px, 0px);}100%{-webkit-transform: translate(0.004058837890625px, -0.4489898681640625px) translate(-0.004058837890625px, 0.4489898681640625px) translate(0px, 0px);transform: translate(0.004058837890625px, -0.4489898681640625px) translate(-0.004058837890625px, 0.4489898681640625px) translate(0px, 0px);}}@keyframes el_ryxyRgnInX_Hyow-nU2X_Animation{0%{-webkit-transform: translate(0.004058837890625px, -0.4489898681640625px) translate(-0.004058837890625px, 0.4489898681640625px) translate(0px, 0px);transform: translate(0.004058837890625px, -0.4489898681640625px) translate(-0.004058837890625px, 0.4489898681640625px) translate(0px, 0px);}33.33%{-webkit-transform: translate(0.004058837890625px, -0.4489898681640625px) translate(-0.004058837890625px, 0.4489898681640625px) translate(20px, 0px);transform: translate(0.004058837890625px, -0.4489898681640625px) translate(-0.004058837890625px, 0.4489898681640625px) translate(20px, 0px);}66.67%{-webkit-transform: translate(0.004058837890625px, -0.4489898681640625px) translate(-0.004058837890625px, 0.4489898681640625px) translate(0px, 0px);transform: translate(0.004058837890625px, -0.4489898681640625px) translate(-0.004058837890625px, 0.4489898681640625px) translate(0px, 0px);}100%{-webkit-transform: translate(0.004058837890625px, -0.4489898681640625px) translate(-0.004058837890625px, 0.4489898681640625px) translate(0px, 0px);transform: translate(0.004058837890625px, -0.4489898681640625px) translate(-0.004058837890625px, 0.4489898681640625px) translate(0px, 0px);}}#el_rJyRe28hQ *{-webkit-animation-duration: 3s;animation-duration: 3s;-webkit-animation-iteration-count: infinite;animation-iteration-count: infinite;-webkit-animation-timing-function: cubic-bezier(0, 0, 1, 1);animation-timing-function: cubic-bezier(0, 0, 1, 1);}#el_ryxyRgnInX{-webkit-transform: translate(-168px, -149.551px);transform: translate(-168px, -149.551px);}#el_BJZJAx2U3m{-webkit-transform: translate(0px, 53px);transform: translate(0px, 53px);}#el_H1GkCx2U2Q{-webkit-transform: translate(362.402px, 267.564px);transform: translate(362.402px, 267.564px);}#el_rkQ1CxnL2Q{fill: #fff1c1;-webkit-transform: translate(168px, 96.551px);transform: translate(168px, 96.551px);}#el_BkVJ0e3UnX{fill: #e0a32f;-webkit-transform: translate(196.857px, 218.304px);transform: translate(196.857px, 218.304px);}#el_S1ry0g28h7{-webkit-transform: translate(240.943px, 252.771px);transform: translate(240.943px, 252.771px);}#el_H1Uk0eh8nQ{-webkit-transform: translate(335.528px, 252.771px);transform: translate(335.528px, 252.771px);}#el_ByvkCx2U2Q{-webkit-transform: translate(288.236px, 252.771px);transform: translate(288.236px, 252.771px);}#el_rkQ1CxnL2Q_SJbkWnInQ{-webkit-transform: translate(0.004055147524923086px, 0px) scale(1, 1) translate(-0.004055147524923086px, 0px);transform: translate(0.004055147524923086px, 0px) scale(1, 1) translate(-0.004055147524923086px, 0px);}#el_ryxyRgnInX_Hyow-nU2X{-webkit-animation-name: el_ryxyRgnInX_Hyow-nU2X_Animation;animation-name: el_ryxyRgnInX_Hyow-nU2X_Animation;-webkit-transform: translate(0.004058837890625px, -0.4489898681640625px) translate(-0.004058837890625px, 0.4489898681640625px) translate(0px, 0px);transform: translate(0.004058837890625px, -0.4489898681640625px) translate(-0.004058837890625px, 0.4489898681640625px) translate(0px, 0px);}</style>
  <defs>
    
  </defs>
  <g id="el_ryxyRgnInX_Hyow-nU2X" data-animator-group="true" data-animator-type="0"><g id="el_ryxyRgnInX" data-name="Group 2">
    <g id="el_BJZJAx2U3m" data-name="Group 1">
      <path id="el_H1GkCx2U2Q" d="M51.776,196.117a74.53,74.53,0,0,1-15.041-1.53,73.609,73.609,0,0,1-26.646-11.321A74.548,74.548,0,0,1-.9,174.086a65.673,65.673,0,0,0,10.85.9H37.966a64.7,64.7,0,0,0,36.343-11.1,65.19,65.19,0,0,0,23.55-28.6,64.592,64.592,0,0,0,5.108-25.3V86.128a64.7,64.7,0,0,0-11.1-36.342,65.19,65.19,0,0,0-28.6-23.55,64.6,64.6,0,0,0-25.3-5.108H9.945A65.671,65.671,0,0,0-.9,22.03,74.136,74.136,0,0,1,22.737,5.915a73.627,73.627,0,0,1,14-4.385A74.535,74.535,0,0,1,51.776,0,73.657,73.657,0,0,1,93.152,12.639,74.219,74.219,0,0,1,119.963,45.2,73.539,73.539,0,0,1,125.779,74v48.111A73.658,73.658,0,0,1,113.14,163.49,74.218,74.218,0,0,1,80.581,190.3,73.539,73.539,0,0,1,51.776,196.117Z"/>
      <path id="el_rkQ1CxnL2Q" d="M33.9,121.753A33.908,33.908,0,0,1,18.5,57.642a28.919,28.919,0,0,1-.237-3.694c0-19.681,19.955-35.635,44.569-35.635.424,0,.848,0,1.269.014C71.71,7.394,86.307,0,103.066,0c14.692,0,27.723,5.683,35.842,14.45A51.988,51.988,0,0,1,165.9,7.177c13.407,0,25.431,4.732,33.6,12.223a55.324,55.324,0,0,1,10.968-1.087c24.615,0,44.57,15.954,44.57,35.635a28.89,28.89,0,0,1-.816,6.82,33.9,33.9,0,0,1-20.4,60.985Z"/>
      <path id="el_BkVJ0e3UnX" d="M0,0H209.21a0,0,0,0,1,0,0V209.177a85,85,0,0,1-85,85H85a85,85,0,0,1-85-85V0A0,0,0,0,1,0,0Z"/>
      <rect id="el_S1ry0g28h7" data-name="Rectangle 4" width="27.253" height="210.813" rx="13.627"/>
      <rect id="el_H1Uk0eh8nQ" data-name="Rectangle 5" width="27.253" height="210.813" rx="13.627"/>
      <rect id="el_ByvkCx2U2Q" data-name="Rectangle 6" width="27.253" height="210.813" rx="13.627"/>
    </g>
  </g></g>
</svg>