<svg xmlns="http://www.w3.org/2000/svg" viewBox="0 0 657 1015">
  <defs>
    <style>
      .cls-1, .cls-3, .cls-4 {
        fill: #fff;
      }

      .cls-1 {
        stroke: #15159a;
        stroke-width: 5px;
      }

      .cls-2 {
        fill: #0c3279;
      }

      .cls-5, .cls-7 {
        stroke: none;
      }

      .cls-6 {
        fill: none;
      }

      .cls-7 {
        fill: #13468d;
      }
    </style>
  </defs>
  <g id="Group_2" data-name="Group 2" transform="translate(-126 -34)">
    <g id="Group_1" data-name="Group 1" transform="translate(-613 -152)">
      <g id="Rectangle_2" data-name="Rectangle 2" class="cls-1" transform="translate(873 464)">
        <rect class="cls-5" width="387" height="219"/>
        <rect class="cls-6" x="2.5" y="2.5" width="382" height="214"/>
      </g>
      <circle id="Ellipse_1" data-name="Ellipse 1" class="cls-2" cx="215.5" cy="215.5" r="215.5" transform="translate(851 513)"/>
      <g id="Union_2" data-name="Union 2" class="cls-3" transform="translate(765 186)">
        <path class="cls-5" d="M 489.9995727539062 301.5001831054688 C 487.5448913574219 301.5001831054688 485.065185546875 301.4195556640625 482.6293640136719 301.2605590820312 L 482.4658203125 301.2498779296875 L 482.3021850585938 301.2606506347656 C 479.888671875 301.4195556640625 477.431884765625 301.5001831054688 475.0002136230469 301.5001831054688 L 114.0002746582031 301.5001831054688 L 111.9995880126953 301.5001831054688 C 104.5685882568359 301.5001831054688 97.14304351806641 300.751708984375 89.92912292480469 299.2754821777344 C 82.89981842041016 297.8370361328125 75.98550415039062 295.6907348632812 69.37843322753906 292.8961181640625 C 62.89066314697266 290.1520385742188 56.6330451965332 286.7554016113281 50.77927780151367 282.8007202148438 C 44.98058319091797 278.8831176757812 39.52758407592773 274.3839416503906 34.57189178466797 269.4281921386719 C 29.6161994934082 264.4725036621094 25.11704635620117 259.0195007324219 21.19950866699219 253.2207183837891 C 17.24481582641602 247.3669586181641 13.84819984436035 241.1092681884766 11.10412311553955 234.6214141845703 C 8.309508323669434 228.0142669677734 6.163200378417969 221.0998687744141 4.724738597869873 214.0704956054688 C 3.248507976531982 206.8564910888672 2.500046491622925 199.4308013916016 2.500046491622925 191.9997253417969 C 2.500046491622925 191.6793365478516 2.501430988311768 191.3516387939453 2.504277229309082 191.0258026123047 L 2.504431009292603 191.0044097900391 L 2.504277229309082 190.9830322265625 C 2.501430988311768 190.655029296875 2.500046491622925 190.3242645263672 2.500046491622925 189.9998779296875 C 2.500046491622925 182.43310546875 3.262200355529785 174.8718719482422 4.765354156494141 167.5261077880859 C 6.230046272277832 160.3683319091797 8.415584564208984 153.3277282714844 11.2612771987915 146.5997924804688 C 14.05550765991211 139.9934844970703 17.51412391662598 133.6214904785156 21.54112243652344 127.6608734130859 C 25.53020095825195 121.7561874389648 30.11150741577148 116.2035675048828 35.15781402587891 111.157341003418 C 40.20404815673828 106.1111068725586 45.75658416748047 101.5298004150391 51.66127777099609 97.54064178466797 C 57.62189102172852 93.51372528076172 63.99389266967773 90.05503082275391 70.60019683837891 87.26079559326172 C 77.328125 84.41518402099609 84.36873626708984 82.22964477539062 91.52650451660156 80.76487731933594 C 98.87227630615234 79.26171875 106.4335098266602 78.49956512451172 114.0002746582031 78.49956512451172 C 123.9721221923828 78.49956512451172 133.859130859375 79.81595611572266 143.3867340087891 82.41218566894531 L 143.7094268798828 82.50010681152344 L 144.0439758300781 82.50010681152344 L 146.9712829589844 82.50010681152344 L 148.4718933105469 82.50010681152344 L 149.1775817871094 81.17579650878906 C 155.2645874023438 69.75302886962891 163.4199676513672 59.08518218994141 173.4173583984375 49.46864700317383 C 183.3685150146484 39.89656829833984 194.9816589355469 31.52064514160156 207.9342803955078 24.57372283935547 C 234.85888671875 10.13295269012451 266.3488159179688 2.500029802322388 298.9998168945312 2.500029802322388 C 331.6508178710938 2.500029802322388 363.1408996582031 10.13295269012451 390.065673828125 24.57372283935547 C 403.0183410644531 31.52072143554688 414.6316528320312 39.89656829833984 424.5828857421875 49.46864700317383 C 434.5802917480469 59.08518218994141 442.7358093261719 69.75302886962891 448.8228149414062 81.17579650878906 L 449.5285034179688 82.50010681152344 L 451.0291137695312 82.50010681152344 L 459.9559631347656 82.50010681152344 L 460.2904968261719 82.50010681152344 L 460.6131896972656 82.41218566894531 C 470.1408081054688 79.81595611572266 480.0278015136719 78.49956512451172 489.9995727539062 78.49956512451172 C 497.5663452148438 78.49956512451172 505.1276550292969 79.26171875 512.4733276367188 80.76487731933594 C 519.6312255859375 82.22964477539062 526.6718139648438 84.41518402099609 533.3997192382812 87.26079559326172 C 540.0060424804688 90.05503082275391 546.3779907226562 93.51372528076172 552.3386840820312 97.54064178466797 C 558.2433471679688 101.5298004150391 563.7959594726562 106.1111068725586 568.8422241210938 111.157341003418 C 573.888427734375 116.2035675048828 578.4697265625 121.7561874389648 582.4588623046875 127.6608734130859 C 586.48583984375 133.6214904785156 589.9445190429688 139.9934844970703 592.7387084960938 146.5997924804688 C 595.5843505859375 153.3277282714844 597.7698974609375 160.3683319091797 599.2346801757812 167.5261077880859 C 600.73779296875 174.8718719482422 601.5 182.43310546875 601.5 189.9998779296875 C 601.5 197.566650390625 600.73779296875 205.1279602050781 599.2346801757812 212.4736480712891 C 597.7698974609375 219.6314849853516 595.5843505859375 226.6721038818359 592.7387084960938 233.3999481201172 C 589.9445190429688 240.0062561035156 586.48583984375 246.3782653808594 582.4588623046875 252.3389587402344 C 578.4697265625 258.24365234375 573.888427734375 263.7961730957031 568.8422241210938 268.8424072265625 C 563.7959594726562 273.8886413574219 558.2433471679688 278.4700317382812 552.3386840820312 282.4591064453125 C 546.3780517578125 286.4860229492188 540.0060424804688 289.9447326660156 533.3997192382812 292.7389526367188 C 526.6718139648438 295.5846557617188 519.6312255859375 297.7701721191406 512.4733276367188 299.23486328125 C 505.1276550292969 300.738037109375 497.5663452148438 301.5001831054688 489.9995727539062 301.5001831054688 Z"/>
        <path class="cls-7" d="M 489.9996337890625 299.0001831054688 C 497.3983764648438 299.0001831054688 504.7910461425781 298.2550964355469 511.9722290039062 296.7856140136719 C 518.9683837890625 295.3540344238281 525.8499755859375 293.2178649902344 532.4259033203125 290.4364318847656 C 538.8834838867188 287.7051086425781 545.1123046875 284.3241882324219 550.9391479492188 280.3876037597656 C 556.7119750976562 276.4875183105469 562.1407470703125 272.0084533691406 567.0744018554688 267.0746765136719 C 572.0081176757812 262.1409301757812 576.4873046875 256.7122802734375 580.3873291015625 250.9394378662109 C 584.3239135742188 245.1125183105469 587.7048950195312 238.8837738037109 590.4362182617188 232.4261016845703 C 593.217529296875 225.8502807617188 595.3538208007812 218.9686126708984 596.785400390625 211.9725189208984 C 598.2548828125 204.7913513183594 599 197.3986968994141 599 189.9999389648438 C 599 182.6011962890625 598.2548828125 175.2085266113281 596.785400390625 168.0273590087891 C 595.3538208007812 161.0311889648438 593.217529296875 154.1496124267578 590.4362182617188 147.5736846923828 C 587.7048950195312 141.1161041259766 584.3239135742188 134.8872680664062 580.3873291015625 129.0604400634766 C 576.4873046875 123.2876052856445 572.0081176757812 117.8588562011719 567.0744018554688 112.9251937866211 C 562.1407470703125 107.9914398193359 556.7119750976562 103.5122756958008 550.9391479492188 99.61227416992188 C 545.1123046875 95.67568969726562 538.8834838867188 92.29469299316406 532.4259033203125 89.5633544921875 C 525.8499755859375 86.78202056884766 518.9683837890625 84.64577484130859 511.9722290039062 83.21418762207031 C 504.7910461425781 81.74468994140625 497.3983764648438 80.99960327148438 489.9996337890625 80.99960327148438 C 480.2496337890625 80.99960327148438 470.5837097167969 82.28635406494141 461.2705383300781 84.82418823242188 L 460.6250610351562 85.00010681152344 L 459.9559631347656 85.00010681152344 L 451.029052734375 85.00010681152344 L 448.0278930664062 85.00010681152344 L 446.616455078125 82.35152435302734 C 440.6533813476562 71.16135406494141 432.6571350097656 60.70418930053711 422.8497314453125 51.27043914794922 C 413.0631408691406 41.856689453125 401.6353759765625 33.6158561706543 388.8840637207031 26.77685737609863 C 362.3213806152344 12.53035640716553 331.2398986816406 5.000023365020752 298.9998168945312 5.000023365020752 C 266.7597045898438 5.000023365020752 235.6783905029297 12.53035640716553 209.1158905029297 26.77685737609863 C 196.3645477294922 33.6158561706543 184.9369659423828 41.856689453125 175.1504669189453 51.27043914794922 C 165.3431396484375 60.70418930053711 157.3468933105469 71.16135406494141 151.3838806152344 82.35152435302734 L 149.9724731445312 85.00010681152344 L 146.9712982177734 85.00010681152344 L 144.0439758300781 85.00010681152344 L 143.3748931884766 85.00010681152344 L 142.7293853759766 84.82418823242188 C 133.4162139892578 82.28635406494141 123.7503051757812 80.99960327148438 114.0003051757812 80.99960327148438 C 106.6015548706055 80.99960327148438 99.20888519287109 81.74468994140625 92.02771759033203 83.21418762207031 C 85.03155517578125 84.64577484130859 78.14997100830078 86.78202056884766 71.57405090332031 89.5633544921875 C 65.11647033691406 92.29469299316406 58.88763427734375 95.67568969726562 53.0608024597168 99.61227416992188 C 47.28796768188477 103.5122756958008 41.85921859741211 107.9914398193359 36.92555236816406 112.9251937866211 C 31.99180221557617 117.8588562011719 27.51263618469238 123.2876052856445 23.61263656616211 129.0604400634766 C 19.67605209350586 134.8872680664062 16.29505348205566 141.1161041259766 13.56371974945068 147.5736846923828 C 10.78238582611084 154.1496124267578 8.646136283874512 161.0311889648438 7.214552879333496 168.0273590087891 C 5.745052814483643 175.2085266113281 4.999969482421875 182.6011962890625 4.999969482421875 189.9999389648438 C 4.999969482421875 190.3166961669922 5.001386165618896 190.6398620605469 5.004219532012939 190.960693359375 L 5.004552841186523 191.0045166015625 L 5.004219532012939 191.0483551025391 C 5.001386165618896 191.366943359375 4.999969482421875 191.6870269775391 4.999969482421875 191.9996948242188 C 4.999969482421875 199.2627716064453 5.731386184692383 206.5198516845703 7.173886299133301 213.5692749023438 C 8.579219818115234 220.4370269775391 10.67621994018555 227.1923522949219 13.40655326843262 233.6475219726562 C 16.08780288696289 239.9866943359375 19.40663528442383 246.1011962890625 23.27096939086914 251.8211975097656 C 27.0994701385498 257.4880981445312 31.49638557434082 262.8171997070312 36.33963775634766 267.6604309082031 C 41.18280410766602 272.5036926269531 46.51188659667969 276.9006042480469 52.17880249023438 280.7290954589844 C 57.89871978759766 284.5935363769531 64.01322174072266 287.912353515625 70.35230255126953 290.5935974121094 C 76.80747222900391 293.3239440917969 83.56263732910156 295.4209289550781 90.43030548095703 296.8262634277344 C 97.47963714599609 298.2687683105469 104.7366333007812 299.0001831054688 111.9996337890625 299.0001831054688 L 114.0003051757812 299.0001831054688 L 475.0002136230469 299.0001831054688 C 477.3782043457031 299.0001831054688 479.7796325683594 298.9214477539062 482.1378173828125 298.76611328125 L 482.4649658203125 298.7445373535156 L 482.7920532226562 298.765869140625 C 485.1744689941406 298.9213562011719 487.5993957519531 299.0001831054688 489.9996337890625 299.0001831054688 M 489.9996337890625 304.0001831054688 C 487.4672241210938 304.0001831054688 484.9577941894531 303.9178466796875 482.4664611816406 303.7552795410156 C 479.9970397949219 303.9179382324219 477.5108947753906 304.0001831054688 475.0002136230469 304.0001831054688 L 114.0003051757812 304.0001831054688 L 111.9996337890625 304.0001831054688 C 50.14438629150391 304.0001831054688 -3.0517578125e-05 253.8557739257812 -3.0517578125e-05 191.9996948242188 C -3.0517578125e-05 191.6674346923828 0.001469482434913516 191.3359375 0.004386148881167173 191.0043640136719 C 0.001469482434913516 190.6706848144531 -3.0517578125e-05 190.3341827392578 -3.0517578125e-05 189.9999389648438 C -3.0517578125e-05 127.0395202636719 51.03988647460938 75.99960327148438 114.0003051757812 75.99960327148438 C 124.3988876342773 75.99960327148438 134.4719696044922 77.39177703857422 144.0439758300781 80.00010681152344 L 146.9712982177734 80.00010681152344 C 172.0230560302734 32.98810577392578 230.6603088378906 2.347819099668413e-05 298.9998168945312 2.347819099668413e-05 C 367.3393859863281 2.347819099668413e-05 425.97705078125 32.98810577392578 451.029052734375 80.00010681152344 L 459.9559631347656 80.00010681152344 C 469.5279846191406 77.39177703857422 479.6010437011719 75.99960327148438 489.9996337890625 75.99960327148438 C 552.9600830078125 75.99960327148438 604 127.0395202636719 604 189.9999389648438 C 604 252.9603576660156 552.9600830078125 304.0001831054688 489.9996337890625 304.0001831054688 Z"/>
      </g>
    </g>
    <path id="Rectangle_4" data-name="Rectangle 4" class="cls-2" d="M50,0H607a50,50,0,0,1,50,50V236a0,0,0,0,1,0,0H0a0,0,0,0,1,0,0V50A50,50,0,0,1,50,0Z" transform="translate(126 805)"/>
    <rect id="Rectangle_5" data-name="Rectangle 5" class="cls-4" width="54" height="244" transform="translate(263 805)"/>
    <rect id="Rectangle_6" data-name="Rectangle 6" class="cls-4" width="54" height="244" transform="translate(582 805)"/>
  </g>
</svg>
