<svg xmlns="http://www.w3.org/2000/svg" viewBox="0 0 323 342">
  <defs>
    <style>
      .cls-1 {
        fill: #8b2727;
      }
    </style>
  </defs>
  <path id="Exclusion_1" data-name="Exclusion 1" class="cls-1" d="M161.5,342a153.309,153.309,0,0,1-62.863-13.438A158.913,158.913,0,0,1,71.2,312.8a165.071,165.071,0,0,1-23.9-20.881,170.513,170.513,0,0,1-19.721-25.308,174.411,174.411,0,0,1-14.89-29.047,177.55,177.55,0,0,1-9.41-32.1,182.627,182.627,0,0,1,0-68.925,177.551,177.551,0,0,1,9.41-32.1,174.411,174.411,0,0,1,14.89-29.047A170.512,170.512,0,0,1,47.3,50.085,165.073,165.073,0,0,1,71.2,29.2,158.915,158.915,0,0,1,98.637,13.438a153.614,153.614,0,0,1,125.726,0A158.913,158.913,0,0,1,251.8,29.2a165.073,165.073,0,0,1,23.9,20.881,170.515,170.515,0,0,1,19.721,25.308,174.41,174.41,0,0,1,14.89,29.047,177.543,177.543,0,0,1,9.41,32.1,182.624,182.624,0,0,1,0,68.925,177.542,177.542,0,0,1-9.41,32.1,174.41,174.41,0,0,1-14.89,29.047A170.515,170.515,0,0,1,275.7,291.915,165.068,165.068,0,0,1,251.8,312.8a158.912,158.912,0,0,1-27.433,15.766A153.312,153.312,0,0,1,161.5,342ZM162,79a84.53,84.53,0,0,0-35.032,7.583,88.284,88.284,0,0,0-15.288,8.9,92.345,92.345,0,0,0-13.32,11.784,96.072,96.072,0,0,0-10.99,14.282,98.9,98.9,0,0,0-8.3,16.392,101.16,101.16,0,0,0-5.244,18.114,104.34,104.34,0,0,0,0,38.9,101.16,101.16,0,0,0,5.244,18.114,98.894,98.894,0,0,0,8.3,16.392,96.076,96.076,0,0,0,10.99,14.282,92.345,92.345,0,0,0,13.32,11.783,88.284,88.284,0,0,0,15.288,8.9,84.651,84.651,0,0,0,70.064,0,88.284,88.284,0,0,0,15.288-8.9,92.348,92.348,0,0,0,13.32-11.783,96.077,96.077,0,0,0,10.99-14.282,98.893,98.893,0,0,0,8.3-16.392,101.16,101.16,0,0,0,5.244-18.114,104.341,104.341,0,0,0,0-38.9,101.16,101.16,0,0,0-5.244-18.114,98.894,98.894,0,0,0-8.3-16.392,96.072,96.072,0,0,0-10.99-14.282,92.348,92.348,0,0,0-13.32-11.784,88.284,88.284,0,0,0-15.288-8.9A84.53,84.53,0,0,0,162,79Zm.5,139a39.01,39.01,0,0,1-15.764-3.3,40.318,40.318,0,0,1-12.873-9,41.98,41.98,0,0,1-8.679-13.35,43.58,43.58,0,0,1,0-32.7,41.979,41.979,0,0,1,8.679-13.35,40.317,40.317,0,0,1,12.873-9,39.3,39.3,0,0,1,31.529,0,40.318,40.318,0,0,1,12.873,9,41.98,41.98,0,0,1,8.68,13.35,43.578,43.578,0,0,1,0,32.7,41.98,41.98,0,0,1-8.68,13.35,40.319,40.319,0,0,1-12.873,9A39.009,39.009,0,0,1,162.5,218Z" transform="translate(0)"/>
</svg>
