<svg xmlns="http://www.w3.org/2000/svg" viewBox="0 0 305.416 463.368">
  <defs>
    <style>
      .cls-1 {
        fill: #891212;
      }

      .cls-2 {
        fill: #3d4cbe;
      }

      .cls-3 {
        fill: #638fcb;
      }

      .cls-4 {
        fill: #fff;
      }

      .cls-5 {
        fill: #980707;
        stroke: #602020;
      }
    </style>
  </defs>
  <g id="Group_1" data-name="Group 1" transform="translate(-429.091 -102.113)">
    <path id="center" class="cls-1" d="M87.57,241.245h0L0,207.629l6.62-17.246L129,133.316,87.571,241.244Zm-71.2-76.277,0,0h0l11.985-31.221,122.38-57.067L138.757,107.9,16.376,164.967Zm21.743-56.64h0L79.7,0l87.571,33.615L160.5,51.261,38.118,108.328Z" transform="translate(481.041 212.127)"/>
    <path id="rocket-top" class="cls-2" d="M204.447,102.408H.123L0,102.285,102.285,0,204.57,102.285l-.123.123Z" transform="translate(543.526 102.113) rotate(21)"/>
    <path id="Rectangle_6" data-name="Rectangle 6" class="cls-3" d="M10.59,0H84.724a0,0,0,0,1,0,0V0a10.59,10.59,0,0,1-10.59,10.59H0a0,0,0,0,1,0,0v0A10.59,10.59,0,0,1,10.59,0Z" transform="matrix(0.891, -0.454, 0.454, 0.891, 546.846, 192.641)"/>
    <path id="star-3" class="cls-4" d="M18.442,0l5.7,11.546L36.882,13.4l-9.221,8.987,2.177,12.691-11.4-5.992-11.4,5.992L9.221,22.386,0,13.4l12.742-1.853Z" transform="translate(583.588 186.948)"/>
    <path id="star-2" class="cls-4" d="M18.442,0l5.7,11.546L36.882,13.4l-9.221,8.987,2.177,12.691-11.4-5.992-11.4,5.992L9.221,22.386,0,13.4l12.742-1.853Z" transform="matrix(0.883, 0.469, -0.469, 0.883, 626.509, 162.188)"/>
    <path id="star-1" class="cls-4" d="M18.442,0l5.7,11.546L36.882,13.4l-9.221,8.987,2.177,12.691-11.4-5.992-11.4,5.992L9.221,22.386,0,13.4l12.742-1.853Z" transform="matrix(0.391, 0.921, -0.921, 0.391, 660.138, 198.058)"/>
    <path id="Subtraction_2" data-name="Subtraction 2" class="cls-5" d="M96.136,99.716h0L57.271,62.357,0,69.147l28.664-43.84L14.7,0,35.723,7.05,48.889,20.987,29.273,38.8l16.562-.049L41.4,47.218l23.035-5.17L78.8,57.675l5.136-10.466,13.085,7.646.8-20.942,10.982-2.36,24.073,8.073L106.437,50.035l-10.3,49.679h0Z" transform="matrix(0.999, 0.035, -0.035, 0.999, 433.588, 460.77)"/>
    <rect id="bottom" class="cls-2" width="105.905" height="46.144" transform="translate(474.211 422.349) rotate(21)"/>
  </g>
</svg>
