<svg xmlns="http://www.w3.org/2000/svg" viewBox="0 0 1066.377 1064.681">
  <defs>
    <style>
      .cls-1 {
        fill: #982626;
      }

      .cls-2 {
        fill: #0c3279;
      }
    </style>
  </defs>
  <g id="Group_1" data-name="Group 1" transform="translate(-31.623 34.45)">
    <path id="Subtraction_1" data-name="Subtraction 1" class="cls-1" d="M724.584,287.2H58.359a313.256,313.256,0,0,1,35.7-113.042,323.512,323.512,0,0,1,32.465-48.837,331.135,331.135,0,0,1,40.758-42.314A337.431,337.431,0,0,1,269.32,22.153,342.934,342.934,0,0,1,328.427,5.713c10.233-1.88,20.7-3.314,31.1-4.263C370.07.488,380.819,0,391.472,0s21.4.488,31.947,1.45c10.4.949,20.865,2.383,31.1,4.263A340.33,340.33,0,0,1,567.7,48.268a336.614,336.614,0,0,1,47.963,34.74,331.129,331.129,0,0,1,40.758,42.314,323.513,323.513,0,0,1,32.465,48.837,313.26,313.26,0,0,1,35.7,113.042Z" transform="translate(-24.475 165.272) rotate(-16)"/>
    <ellipse id="Ellipse_3" data-name="Ellipse 3" class="cls-2" cx="30.5" cy="29.5" rx="30.5" ry="29.5" transform="translate(246 20)"/>
    <rect id="Rectangle_4" data-name="Rectangle 4" class="cls-2" width="706" height="21" transform="translate(96.27 425.321) rotate(-17)"/>
    <rect id="Rectangle_3" data-name="Rectangle 3" class="cls-2" width="694" height="20" transform="translate(404 332)"/>
    <rect id="legs" class="cls-2" width="474" height="33" transform="matrix(-0.438, 0.899, -0.899, -0.438, 660.103, 600.502)"/>
    <rect id="legs-2" data-name="legs" class="cls-2" width="457" height="32" transform="translate(853.127 614.811) rotate(61)"/>
    <rect id="legs-3" data-name="legs" class="cls-2" width="447" height="36" transform="translate(753.617 583.231) rotate(90)"/>
    <path id="Subtraction_2" data-name="Subtraction 2" class="cls-1" d="M363.381,880.377a343.858,343.858,0,0,1-34.6-1.747A337.874,337.874,0,0,1,26.747,576.593,343.355,343.355,0,0,1,27.11,504H699.653a343.353,343.353,0,0,1,.362,72.593A337.876,337.876,0,0,1,397.979,878.63,343.866,343.866,0,0,1,363.381,880.377Z" transform="translate(379 -152)"/>
    <path id="Subtraction_3" data-name="Subtraction 3" class="cls-2" d="M515.27,52h-407.6L346.86,0,515.268,52Z" transform="translate(1066.503 854.151) rotate(-179)"/>
  </g>
</svg>
