<svg xmlns="http://www.w3.org/2000/svg" viewBox="0 0 435.63 484">
  <defs>
    <style>
      .cls-1 {
        fill: #b21d1d;
      }

      .cls-2 {
        fill: #0b5562;
      }

      .cls-3, .cls-4 {
        fill: #fff;
      }

      .cls-5, .cls-6 {
        stroke: none;
      }

      .cls-6 {
        fill: #707070;
      }
    </style>
  </defs>
  <g id="Group_4" data-name="Group 4" transform="translate(-68 -56)">
    <path id="Union_1" data-name="Union 1" class="cls-1" d="M0,370.871c0-22.255,44.035-41.666,109.319-51.927V0H321.38V318.815c65.732,10.228,110.141,29.708,110.141,52.056,0,32.963-96.6,59.684-215.76,59.684S0,403.834,0,370.871Z" transform="translate(70.466 93.584)"/>
    <path id="Subtraction_1" data-name="Subtraction 1" class="cls-2" d="M217.815,220.156c-14.779,0-29.548-.477-43.9-1.418-13.985-.917-27.741-2.285-40.886-4.067-12.907-1.749-25.355-3.914-37-6.435-11.533-2.5-22.379-5.364-32.236-8.523a217.159,217.159,0,0,1-26.6-10.33,115.184,115.184,0,0,1-20.082-11.856,52.34,52.34,0,0,1-12.692-13.1A26,26,0,0,1,0,150.359c0-6.377,2.683-12.7,7.976-18.781,5.13-5.9,12.7-11.565,22.49-16.842,19.355-10.43,46.982-19.11,79.894-25.1V0H324.441V89.482c33.137,5.973,60.966,14.661,80.479,25.123,9.869,5.292,17.5,10.977,22.669,16.9,5.336,6.108,8.042,12.452,8.042,18.855a26,26,0,0,1-4.425,14.067,52.341,52.341,0,0,1-12.692,13.1,115.181,115.181,0,0,1-20.082,11.856,217.137,217.137,0,0,1-26.6,10.33c-9.857,3.159-20.7,6.026-32.236,8.523-11.644,2.521-24.092,4.686-37,6.435-13.145,1.782-26.9,3.15-40.886,4.067C247.363,219.679,232.594,220.156,217.815,220.156Z" transform="translate(68 319.844)"/>
    <g id="white_stripes" data-name="white stripes" class="cls-3" transform="translate(214.306 105.317)">
      <path class="cls-5" d="M 140.8746643066406 214.0274353027344 L 110.6404190063477 214.0274353027344 L 110.6404190063477 0.4999954402446747 L 140.8746643066406 0.4999954402446747 L 140.8746643066406 214.0274353027344 Z M 87.44783020019531 214.0274353027344 L 57.21435928344727 214.0274353027344 L 57.21435928344727 0.4999954402446747 L 87.44783020019531 0.4999954402446747 L 87.44783020019531 214.0274353027344 Z M 38.13180541992188 214.0274353027344 L 0.4999988079071045 214.0274353027344 L 0.4999988079071045 0.4999954402446747 L 38.13180541992188 0.4999954402446747 L 38.13180541992188 214.0274353027344 Z"/>
      <path class="cls-6" d="M 140.3746643066406 213.5274353027344 L 140.3746643066406 0.9999954104423523 L 111.1404190063477 0.9999954104423523 L 111.1404190063477 213.5274353027344 L 140.3746643066406 213.5274353027344 M 86.94783020019531 213.5274353027344 L 86.94783020019531 0.9999954104423523 L 57.71435928344727 0.9999954104423523 L 57.71435928344727 213.5274353027344 L 86.94783020019531 213.5274353027344 M 37.63180541992188 213.5274353027344 L 37.63180541992188 0.9999954104423523 L 0.9999988079071045 0.9999954104423523 L 0.9999988079071045 213.5274353027344 L 37.63180541992188 213.5274353027344 M 141.3746643066406 214.5274353027344 L 110.1404190063477 214.5274353027344 L 110.1404190063477 -4.570855253405171e-06 L 141.3746643066406 -4.570855253405171e-06 L 141.3746643066406 214.5274353027344 Z M 87.94783020019531 214.5274353027344 L 56.71435928344727 214.5274353027344 L 56.71435928344727 -4.570855253405171e-06 L 87.94783020019531 -4.570855253405171e-06 L 87.94783020019531 214.5274353027344 Z M 38.63180541992188 214.5274353027344 L -1.180012986878864e-06 214.5274353027344 L -1.180012986878864e-06 -4.570855253405171e-06 L 38.63180541992188 -4.570855253405171e-06 L 38.63180541992188 214.5274353027344 Z"/>
    </g>
    <ellipse id="Ellipse_1" data-name="Ellipse 1" class="cls-1" cx="109.73" cy="37.809" rx="109.73" ry="37.809" transform="translate(177.319 56)"/>
    <path id="stars" class="cls-4" d="M159.311,35.951l-17.936-6.645L157.56,19.111,158.336,0l14.7,12.242L191.45,7.073l-7.1,17.761,10.6,15.919-19.085-1.266L164.006,54.492Zm-69.865,0L71.509,29.306,87.7,19.111,88.471,0l14.7,12.242,18.418-5.169-7.1,17.761,10.6,15.919L106,39.487,94.141,54.492Zm-71.51,0L0,29.306,16.186,19.111,16.961,0l14.7,12.242L50.075,7.073l-7.1,17.761,10.6,15.919L34.494,39.487,22.631,54.492Z" transform="translate(187.182 352.7)"/>
  </g>
</svg>
