<svg xmlns="http://www.w3.org/2000/svg" viewBox="0 0 384.453 627.727">
  <defs>
    <style>
      .cls-1 {
        fill: #eba654;
      }

      .cls-2 {
        fill: #c16e0b;
      }

      .cls-3 {
        fill: #e6dbdb;
      }

      .cls-4 {
        fill: #4452c1;
      }

      .cls-5 {
        fill: #961e1e;
      }

      .cls-6, .cls-7 {
        stroke: none;
      }

      .cls-7 {
        fill: #c17e00;
      }
    </style>
  </defs>
  <g id="Group_1" data-name="Group 1" transform="translate(-186 -61)">
    <g id="cone" transform="translate(26 22)">
      <g id="Subtraction_1" data-name="Subtraction 1" class="cls-1" transform="translate(505.91 652.08) rotate(177)">
        <path class="cls-6" d="M 279.1219177246094 327.5208129882812 L 0.767339289188385 327.5208129882812 L 144.8018493652344 1.274358987808228 L 279.1219177246094 327.5208129882812 Z"/>
        <path class="cls-7" d="M 278.3753051757812 327.0208129882812 L 144.7857666015625 2.548682451248169 L 1.534603357315063 327.0208129882812 L 278.3753051757812 327.0208129882812 M 279.8685302734375 328.0209045410156 L 279.8685302734375 328.0208129882812 L 279.8685302734375 328.0209045410156 Z M 279.8685302734375 328.0208129882812 L 1.513671850261744e-05 328.0208129882812 L 144.8178863525391 -6.0628253777395e-06 L 279.8685302734375 328.0209045410156 Z"/>
      </g>
      <g id="Subtraction_2" data-name="Subtraction 2" class="cls-2" transform="translate(357.584 442.587) rotate(177)">
        <path class="cls-6" d="M 82.89482879638672 33.96614456176758 L 1.438760042190552 33.96614456176758 L 43.58819961547852 0.6461027860641479 L 82.89482879638672 33.96614456176758 Z"/>
        <path class="cls-7" d="M 81.53173828125 33.46613693237305 L 43.57712936401367 1.292202591896057 L 2.877507448196411 33.46613693237305 L 81.53173828125 33.46613693237305 M 84.25792694091797 34.46615982055664 L 84.25792694091797 34.46613693237305 L 84.25792694091797 34.46615982055664 Z M 84.25792694091797 34.46613693237305 L 6.714585197187262e-06 34.46613693237305 L 43.5992431640625 -4.350011295173317e-06 L 84.25792694091797 34.46615982055664 Z"/>
      </g>
      <g id="Subtraction_4" data-name="Subtraction 4" class="cls-2" transform="translate(400.826 563.795) rotate(177)">
        <path class="cls-6" d="M 82.89482879638672 33.96614456176758 L 1.438760042190552 33.96614456176758 L 43.58819961547852 0.6461027860641479 L 82.89482879638672 33.96614456176758 Z"/>
        <path class="cls-7" d="M 81.53173828125 33.46613693237305 L 43.57712936401367 1.292202591896057 L 2.877507448196411 33.46613693237305 L 81.53173828125 33.46613693237305 M 84.25792694091797 34.46615982055664 L 84.25792694091797 34.46613693237305 L 84.25792694091797 34.46615982055664 Z M 84.25792694091797 34.46613693237305 L 6.714585197187262e-06 34.46613693237305 L 43.5992431640625 -4.350011295173317e-06 L 84.25792694091797 34.46615982055664 Z"/>
      </g>
      <g id="Subtraction_5" data-name="Subtraction 5" class="cls-2" transform="translate(371.998 510.726) rotate(177)">
        <path class="cls-6" d="M 82.89482879638672 33.96614456176758 L 1.438760042190552 33.96614456176758 L 43.58819961547852 0.6461027860641479 L 82.89482879638672 33.96614456176758 Z"/>
        <path class="cls-7" d="M 81.53173828125 33.46613693237305 L 43.57712936401367 1.292202591896057 L 2.877507448196411 33.46613693237305 L 81.53173828125 33.46613693237305 M 84.25792694091797 34.46615982055664 L 84.25792694091797 34.46613693237305 L 84.25792694091797 34.46615982055664 Z M 84.25792694091797 34.46613693237305 L 6.714585197187262e-06 34.46613693237305 L 43.5992431640625 -4.350011295173317e-06 L 84.25792694091797 34.46615982055664 Z"/>
      </g>
      <g id="Subtraction_6" data-name="Subtraction 6" class="cls-2" transform="translate(440.136 473.38) rotate(177)">
        <path class="cls-6" d="M 82.89482879638672 33.96614456176758 L 1.438760042190552 33.96614456176758 L 43.58819961547852 0.6461027860641479 L 82.89482879638672 33.96614456176758 Z"/>
        <path class="cls-7" d="M 81.53173828125 33.46613693237305 L 43.57712936401367 1.292202591896057 L 2.877507448196411 33.46613693237305 L 81.53173828125 33.46613693237305 M 84.25792694091797 34.46615982055664 L 84.25792694091797 34.46613693237305 L 84.25792694091797 34.46615982055664 Z M 84.25792694091797 34.46613693237305 L 6.714585197187262e-06 34.46613693237305 L 43.5992431640625 -4.350011295173317e-06 L 84.25792694091797 34.46615982055664 Z"/>
      </g>
      <g id="Subtraction_7" data-name="Subtraction 7" class="cls-2" transform="translate(440.136 422.932) rotate(177)">
        <path class="cls-6" d="M 82.89482879638672 33.96614456176758 L 1.438760042190552 33.96614456176758 L 43.58819961547852 0.6461027860641479 L 82.89482879638672 33.96614456176758 Z"/>
        <path class="cls-7" d="M 81.53173828125 33.46613693237305 L 43.57712936401367 1.292202591896057 L 2.877507448196411 33.46613693237305 L 81.53173828125 33.46613693237305 M 84.25792694091797 34.46615982055664 L 84.25792694091797 34.46613693237305 L 84.25792694091797 34.46615982055664 Z M 84.25792694091797 34.46613693237305 L 6.714585197187262e-06 34.46613693237305 L 43.5992431640625 -4.350011295173317e-06 L 84.25792694091797 34.46615982055664 Z"/>
      </g>
    </g>
    <ellipse id="white" class="cls-3" cx="111.708" cy="110.398" rx="111.708" ry="110.398" transform="translate(186 186.174)"/>
    <ellipse id="blue" class="cls-4" cx="111.708" cy="110.398" rx="111.708" ry="110.398" transform="translate(252.346 61)"/>
    <path id="red" class="cls-5" d="M111.708,0C173.4,0,223.416,49.427,223.416,110.4S173.4,220.8,111.708,220.8,0,171.369,0,110.4,50.013,0,111.708,0Z" transform="translate(347.036 186.07)"/>
  </g>
</svg>
