<svg xmlns="http://www.w3.org/2000/svg" viewBox="0 0 565.85 382.981">
  <defs>
    <style>
      .cls-1 {
        fill: #5f3016;
      }

      .cls-2 {
        fill: #ddb26d;
      }

      .cls-3 {
        stroke: #000;
      }

      .cls-4 {
        stroke: #707070;
      }

      .cls-5, .cls-6 {
        stroke: none;
      }

      .cls-7 {
        fill: none;
      }
    </style>
  </defs>
  <g id="Group_1" data-name="Group 1" transform="translate(-269 -125.1)">
    <g id="Subtraction_1" data-name="Subtraction 1" class="cls-1" transform="translate(312.211 399.475)">
      <path class="cls-5" d="M 521.71044921875 107.2287063598633 L 517.9722290039062 105.7724380493164 L 520.1250610351562 103.61962890625 L 521.71044921875 107.2287063598633 Z M 339.0000610351562 101.1063995361328 L 107.5420227050781 101.1061859130859 L 17.60663795471191 7.499970436096191 L 424.9848022460938 7.499970436096191 L 339.0000610351562 101.1063995361328 Z"/>
      <path class="cls-6" d="M 335.7054748535156 93.60634613037109 L 407.9115295410156 15.00001811981201 L 35.21323013305664 15.00001811981201 L 110.7368545532227 93.60618591308594 L 335.7054748535156 93.60634613037109 M 342.2947387695312 108.6063537597656 L 342.2948303222656 108.6061859130859 L 104.3471603393555 108.6061859130859 L -5.615234385913936e-06 1.784261075954419e-05 L 442.0580749511719 1.784261075954419e-05 L 342.2948303222656 108.6061859130859 L 342.2947387695312 108.6063537597656 Z M 522.6384887695312 108.6061859130859 L 522.637939453125 108.6061859130859 L 519.0209350585938 108.6061859130859 L 522.638427734375 104.6681823730469 L 522.6384887695312 108.6058502197266 L 522.6384887695312 108.6061859130859 Z"/>
    </g>
    <g id="Union_1" data-name="Union 1" class="cls-2" transform="translate(269 247.336)">
      <path class="cls-5" d="M 448.9866027832031 172.5998687744141 C 422.2704467773438 172.5998687744141 398.1807556152344 163.6766357421875 390.4047546386719 150.9001007080078 L 383.998046875 140.3734893798828 L 377.5913696289062 150.9001007080078 C 369.8152770996094 163.6765594482422 345.7252197265625 172.5998687744141 319.0086059570312 172.5998687744141 C 296.9740600585938 172.5998687744141 276.44921875 166.5224914550781 265.4437561035156 156.7392578125 L 260.4609069824219 152.3097991943359 L 255.4780578613281 156.7392578125 C 244.4725189208984 166.5224151611328 223.9472808837891 172.5998687744141 201.9122924804688 172.5998687744141 C 178.0384368896484 172.5998687744141 156.11181640625 165.4889526367188 146.0516662597656 154.4839477539062 L 140.5160522460938 148.4284057617188 L 134.9804382324219 154.4839477539062 C 124.9203643798828 165.4889526367188 102.9934387207031 172.5998687744141 79.11898040771484 172.5998687744141 C 43.25413131713867 172.5998687744141 18.26043891906738 157.2010192871094 18.26043891906738 143.3807983398438 C 18.26043891906738 136.6331787109375 23.69820785522461 131.2024841308594 28.25997734069824 127.8348693847656 L 38.75074768066406 120.0901794433594 L 26.78120803833008 114.9164886474609 C 15.06828498840332 109.8537979125977 7.499977588653564 98.33964538574219 7.499977588653564 85.58279418945312 C 7.499977588653564 72.4443359375 15.73843955993652 60.45579528808594 28.00036239624023 55.75094985961914 L 28.98751640319824 55.37225723266602 L 29.83143997192383 54.73533248901367 C 67.27013397216797 26.4824104309082 165.5605163574219 7.500026702880859 274.4145202636719 7.500026702880859 C 426.6688232421875 7.500026702880859 532.7727661132812 43.08325576782227 532.7727661132812 75.01856231689453 C 532.7727661132812 75.83710479736328 532.7008056640625 76.65310668945312 532.5609741210938 77.4617919921875 L 532.338623046875 78.74726104736328 L 532.5633544921875 80.03233337402344 C 532.8786010742188 81.83464050292969 533.042724609375 83.69025421142578 533.042724609375 85.58279418945312 C 533.042724609375 101.2722549438477 521.8313598632812 114.5219497680664 506.3845825195312 117.0875625610352 L 490.9441223144531 119.6521072387695 L 502.6169128417969 130.0794830322266 C 505.9148254394531 133.0255584716797 509.8461303710938 137.7246398925781 509.8461303710938 143.3807983398438 C 509.8461303710938 157.2010192871094 484.85205078125 172.5998687744141 448.9866027832031 172.5998687744141 Z"/>
      <path class="cls-6" d="M 448.9866027832031 165.0998687744141 C 481.0641174316406 165.0998687744141 502.3460998535156 152.0273590087891 502.3460998535156 143.3807830810547 C 502.3460998535156 140.3471984863281 499.3853759765625 137.2493591308594 497.6204528808594 135.6727905273438 L 474.2747802734375 114.8180313110352 L 505.1557006835938 109.6889495849609 C 516.9686889648438 107.7268676757812 525.542724609375 97.58878326416016 525.542724609375 85.58278656005859 C 525.542724609375 84.13053131103516 525.4172973632812 82.70670318603516 525.1754760742188 81.32369995117188 L 524.7261962890625 78.75453186035156 L 525.1705932617188 76.1844482421875 C 525.2373657226562 75.79853057861328 525.272705078125 75.40920257568359 525.272705078125 75.01861572265625 C 525.272705078125 68.19770050048828 511.2818603515625 51.35020065307617 458.3311157226562 36.40878295898438 C 409.4054565429688 22.60311698913574 344.0892639160156 15.00003337860107 274.4145202636719 15.00003337860107 C 150.4326171875 15.00003337860107 64.50678253173828 37.96369934082031 34.34927749633789 60.72195053100586 L 32.66136169433594 61.99570083618164 L 30.68719482421875 62.75320053100586 C 21.30419540405273 66.35344696044922 15.00002861022949 75.52794647216797 15.00002861022949 85.58278656005859 C 15.00002861022949 95.34545135498047 20.79244613647461 104.1573638916016 29.75686264038086 108.0321197509766 L 53.69602966308594 118.3794479370117 L 32.71436309814453 133.8687896728516 C 28.29502868652344 137.1312866210938 25.76044654846191 140.5982818603516 25.76044654846191 143.3807830810547 C 25.76044654846191 152.0273590087891 47.04203033447266 165.0998687744141 79.11902618408203 165.0998687744141 C 103.9844436645508 165.0998687744141 122.3119430541992 157.2265319824219 129.4448547363281 149.4235382080078 L 140.51611328125 137.3123626708984 L 151.5874481201172 149.4236145019531 C 158.7202758789062 157.2265319824219 177.04736328125 165.0998687744141 201.9122772216797 165.0998687744141 C 221.8811950683594 165.0998687744141 240.9511108398438 159.6178588867188 250.4951171875 151.1338653564453 L 260.4608764648438 142.2748718261719 L 270.4266052246094 151.1338653564453 C 279.9706115722656 159.6178588867188 299.0401916503906 165.0998687744141 319.0086059570312 165.0998687744141 C 345.7433471679688 165.0998687744141 365.8446044921875 155.7747802734375 371.1846008300781 147.0008697509766 L 383.9980163574219 125.9477005004883 L 396.8114318847656 147.0008697509766 C 402.1514587402344 155.7747802734375 422.2523498535156 165.0998687744141 448.9866027832031 165.0998687744141 M 448.9866027832031 180.0998687744141 C 418.655517578125 180.0998687744141 392.9376220703125 169.4876098632812 383.9980163574219 154.7993621826172 C 375.0584411621094 169.4876098632812 349.3404541015625 180.0998687744141 319.0086059570312 180.0998687744141 C 294.1731872558594 180.0998687744141 272.4320373535156 172.9863739013672 260.4608764648438 162.3446960449219 C 248.4897003173828 172.9863739013672 226.7483673095703 180.0998687744141 201.9122772216797 180.0998687744141 C 174.9569396972656 180.0998687744141 151.6457824707031 171.7193603515625 140.51611328125 159.5442047119141 C 129.3863677978516 171.7193603515625 106.0750274658203 180.0998687744141 79.11902618408203 180.0998687744141 C 41.36577987670898 180.0998687744141 10.7604455947876 163.6596221923828 10.7604455947876 143.3807830810547 C 10.7604455947876 135.3154449462891 15.59944534301758 127.8589477539062 23.80552864074707 121.8009490966797 C 9.800945281982422 115.7476959228516 2.897135345847346e-05 101.8094482421875 2.897135345847346e-05 85.58278656005859 C 2.897135345847346e-05 68.77845001220703 10.50886249542236 54.42928314208984 25.31369590759277 48.74869918823242 C 63.04578018188477 20.27436637878418 160.3408660888672 3.297932926216163e-05 274.4145202636719 3.297932926216163e-05 C 421.2441101074219 3.297932926216163e-05 540.272705078125 33.58711624145508 540.272705078125 75.01861572265625 C 540.272705078125 76.26528167724609 540.164306640625 77.50836944580078 539.9512939453125 78.74019622802734 C 540.3397827148438 80.96212005615234 540.542724609375 83.24961853027344 540.542724609375 85.58278656005859 C 540.542724609375 105.1462860107422 526.2966918945312 121.3830337524414 507.6134338378906 124.486198425293 C 513.79296875 130.0063629150391 517.3461303710938 136.4702758789062 517.3461303710938 143.3807830810547 C 517.3461303710938 163.6596221923828 486.7406921386719 180.0998687744141 448.9866027832031 180.0998687744141 Z"/>
    </g>
    <g id="Ellipse_6" data-name="Ellipse 6" class="cls-3" transform="matrix(0.883, 0.469, -0.469, 0.883, 483.915, 263.962)">
      <ellipse class="cls-5" cx="13.494" cy="43.788" rx="13.494" ry="43.788"/>
      <ellipse class="cls-7" cx="13.494" cy="43.788" rx="12.994" ry="43.288"/>
    </g>
    <g id="Ellipse_7" data-name="Ellipse 7" class="cls-3" transform="matrix(0.766, -0.643, 0.643, 0.766, 572.835, 281.336)">
      <ellipse class="cls-5" cx="13.494" cy="43.788" rx="13.494" ry="43.788"/>
      <ellipse class="cls-7" cx="13.494" cy="43.788" rx="12.994" ry="43.288"/>
    </g>
    <g id="Ellipse_8" data-name="Ellipse 8" class="cls-3" transform="translate(528.905 275.301) rotate(-3)">
      <ellipse class="cls-5" cx="13.494" cy="43.788" rx="13.494" ry="43.788"/>
      <ellipse class="cls-7" cx="13.494" cy="43.788" rx="12.994" ry="43.288"/>
    </g>
    <path id="Union_2" data-name="Union 2" class="cls-4" d="M71.084,62.377c4.867-19.23-1.117-18.033-7.848-16.836-6.991,1.244-14.788,2.487-12.075-19.151C56.485-16.084,77.144,5.468,77.144,5.468s-22.568,26.835-15.8,29c4.423,1.419,19.21,5.783,26.953,7.282-2.269,2.178-4.565,6.773-6.312,11.369-3.26,8.576-4.612,17.153-.322,10.015,7.912-13.165-1.781,38.379-1.781,38.379S61.162,101.579,71.084,62.377Zm-51.142-.71c4.117-17.246-1.487-16.107-7.79-14.968C5.61,47.881-1.685,49.063.346,29.7c3.989-38.021,23.93-18.966,23.93-18.966S3.7,34.951,10.114,36.822c4.193,1.223,18.2,4.975,25.517,6.236-2.076,1.965-4.119,6.08-5.65,10.195-2.869,7.71-3.943,15.42-.075,8.987,7.125-11.849-.755,34.324-.755,34.324h-.01C28.668,96.564,11.668,96.323,19.942,61.667Zm96.858-2.2c5.642-17.747.093-16.889-6.157-16.031-6.51.894-13.782,1.787-9.959-18.348,7.493-39.466,25.168-18.541,25.168-18.541s-22.39,24.194-16.3,26.482c3.98,1.5,17.307,6.141,24.334,7.839-2.24,1.965-4.656,6.23-6.551,10.495-3.487,7.845-5.214,15.69-.856,9.222,8.08-11.992-3.985,35.777-3.985,35.777S105.281,95.7,116.8,59.472ZM35.631,43.058c1.2-1.135,2.409-1.553,3.538-.839,1.414.894,1.24,1.258.024,1.258A23.756,23.756,0,0,1,35.631,43.058Zm52.664-1.3c1.307-1.254,2.606-1.707,3.786-.9,1.452,1,1.289,1.407.056,1.407A23.172,23.172,0,0,1,88.3,41.754Zm45.589-.882c1.279-1.122,2.5-1.494,3.535-.691,1.2.934,1.114,1.32.146,1.32A18.65,18.65,0,0,1,133.885,40.872Z" transform="translate(458.523 125.6)"/>
  </g>
</svg>
