<svg xmlns="http://www.w3.org/2000/svg" viewBox="0 0 340.001 879.5">
  <defs>
    <style>
      .cls-1 {
        fill: #fff;
      }

      .cls-2 {
        fill: #bc2a2a;
      }

      .cls-3 {
        fill: #f8c294;
      }

      .cls-4 {
        fill: #2538c3;
      }

      .cls-5 {
        fill: #edf8fc;
      }

      .cls-6 {
        fill: #8b1e1e;
      }

      .cls-7 {
        fill: #142272;
      }

      .cls-8, .cls-9 {
        stroke: none;
      }

      .cls-9 {
        fill: #c7bbbb;
      }
    </style>
  </defs>
  <g id="Group_1" data-name="Group 1" transform="translate(-936.5 -66.5)">
    <g id="Subtraction_2" data-name="Subtraction 2" class="cls-1" transform="translate(936.5 66.5)">
      <path class="cls-8" d="M 337.5003051757812 421.0004577636719 L 2.500069141387939 421.0004577636719 L 2.500069141387939 170.0001068115234 C 2.500069141387939 158.6336212158203 3.644985914230347 147.2751922607422 5.903069019317627 136.2402038574219 C 8.103402137756348 125.4874496459961 11.3867359161377 114.9101104736328 15.66190242767334 104.8020324707031 C 19.85956954956055 94.87770080566406 25.05531883239746 85.30528259277344 31.10481834411621 76.35078430175781 C 37.09740447998047 67.48061370849609 43.97932052612305 59.13961410522461 51.55948638916016 51.55953216552734 C 59.13956832885742 43.97936248779297 67.48056793212891 37.09744644165039 76.35073852539062 31.1048641204834 C 85.30523681640625 25.05536460876465 94.87765502929688 19.8596134185791 104.8020706176758 15.66194725036621 C 114.9106521606445 11.38653087615967 125.4879837036133 8.10319709777832 136.240234375 5.903113842010498 C 147.2749786376953 3.645030498504639 158.6334838867188 2.500030517578125 170.0000762939453 2.500030517578125 C 181.3665618896484 2.500030517578125 192.7249908447266 3.645030498504639 203.7598266601562 5.903113842010498 C 214.5126495361328 8.103446960449219 225.0899047851562 11.38678073883057 235.1978149414062 15.66194725036621 C 245.1221466064453 19.8596134185791 254.6945648193359 25.05536460876465 263.6490783691406 31.1048641204834 C 272.5188293457031 37.09711456298828 280.8598937988281 43.97903060913086 288.4404907226562 51.55953216552734 C 296.0206604003906 59.13961410522461 302.9025573730469 67.48061370849609 308.8952331542969 76.35078430175781 C 314.9449157714844 85.30545043945312 320.1406555175781 94.87786102294922 324.3382263183594 104.8020324707031 C 328.6134033203125 114.9096984863281 331.8968200683594 125.486946105957 334.0972290039062 136.2402038574219 C 336.3553161621094 147.2754516601562 337.5003051757812 158.6339416503906 337.5003051757812 170.0001068115234 L 337.5003051757812 421.0004577636719 Z"/>
      <path class="cls-9" d="M 335.0003051757812 418.5004577636719 L 335.0003051757812 170.0001068115234 C 335.0003051757812 158.8018646240234 333.8724060058594 147.6120300292969 331.6479797363281 136.7414398193359 C 329.4806518554688 126.1498641967773 326.24658203125 115.7315292358398 322.0357360839844 105.7759475708008 C 317.9010009765625 96.0003662109375 312.7829895019531 86.57119750976562 306.82373046875 77.7503662109375 C 300.920166015625 69.01194763183594 294.1403198242188 60.79486465454102 286.6727294921875 53.32736206054688 C 279.2046508789062 45.85927963256836 270.9874877929688 39.07952880859375 262.2495727539062 33.17636489868164 C 253.4288177490234 27.21728134155273 243.9995727539062 22.09919738769531 234.2239074707031 17.96444702148438 C 224.26806640625 13.75361347198486 213.8498229980469 10.51961421966553 203.2585754394531 8.352363586425781 C 192.3883209228516 6.127947330474854 181.1985626220703 5.000030517578125 170.0000762939453 5.000030517578125 C 158.8014068603516 5.000030517578125 147.6116485595703 6.127947330474854 136.7414093017578 8.352363586425781 C 126.1508178710938 10.51936340332031 115.7324829101562 13.75336360931396 105.7759017944336 17.96444702148438 C 96.00023651123047 22.09919738769531 86.57098388671875 27.21728134155273 77.75023651123047 33.17636489868164 C 69.01190185546875 39.07994842529297 60.79481887817383 45.85969543457031 53.32723617553711 53.32736206054688 C 45.85965347290039 60.79486465454102 39.07990264892578 69.01194763183594 33.17631912231445 77.75028228759766 C 27.21723556518555 86.57102966308594 22.09915351867676 96.00028228759766 17.96448516845703 105.7758636474609 C 13.75348567962646 115.7320327758789 10.51956939697266 126.1502838134766 8.352319717407227 136.7413635253906 C 6.127902507781982 147.6117858886719 5.000069141387939 158.8016204833984 5.000069141387939 170.0001068115234 L 5.000069141387939 418.5004577636719 L 335.0003051757812 418.5004577636719 M 0.500402569770813 622 L 0.4984025955200195 622 L 0.4984025955200195 621.9989624023438 L 6.925455818418413e-05 622 L 6.925455818418413e-05 170.0001068115234 C 6.925455818418413e-05 158.4656982421875 1.162069201469421 146.9386138916016 3.453819274902344 135.7390289306641 C 5.687235832214355 124.8244476318359 9.019986152648926 114.0881118774414 13.35940265655518 103.8281936645508 C 17.61990165710449 93.75519561767578 22.89332008361816 84.03961181640625 29.03323554992676 74.95127868652344 C 35.11465072631836 65.94961547851562 42.09873580932617 57.48469543457031 49.7917366027832 49.79178237915039 C 57.48465347290039 42.09878158569336 65.94956970214844 35.11469650268555 74.95123291015625 29.03328132629395 C 84.03956604003906 22.89336395263672 93.75514984130859 17.61994743347168 103.8281555175781 13.35944747924805 C 114.0881500244141 9.020030975341797 124.8244018554688 5.687197208404541 135.7390747070312 3.453863859176636 C 146.9385681152344 1.162030458450317 158.4656524658203 3.0517578125e-05 170.0000762939453 3.0517578125e-05 C 181.5344085693359 3.0517578125e-05 193.0614013671875 1.162030458450317 204.260986328125 3.453863859176636 C 215.1755676269531 5.687280654907227 225.9118957519531 9.020030975341797 236.1716461181641 13.35944747924805 C 246.2446594238281 17.61994743347168 255.9602355957031 22.89336395263672 265.048583984375 29.03328132629395 C 274.0502319335938 35.1146125793457 282.5151672363281 42.09878158569336 290.2082214355469 49.79178237915039 C 297.9013061523438 57.48477935791016 304.8854064941406 65.94969940185547 310.9668273925781 74.95127868652344 C 317.1064758300781 84.03919982910156 322.3800659179688 93.75478363037109 326.6407470703125 103.8281936645508 C 330.980224609375 114.0878601074219 334.31298828125 124.8241958618164 336.5464782714844 135.7390289306641 C 338.8382263183594 146.9386138916016 340.0003051757812 158.4656982421875 340.0003051757812 170.0001068115234 L 340.0003051757812 423.5004577636719 L 0.500402569770813 423.5004577636719 L 0.500402569770813 622 Z"/>
    </g>
    <path id="Subtraction_1" data-name="Subtraction 1" class="cls-2" d="M366.5,214.5H26.5V170a171.263,171.263,0,0,1,3.454-34.261,169.069,169.069,0,0,1,25.58-60.788,170.5,170.5,0,0,1,74.8-61.592,169.145,169.145,0,0,1,31.911-9.906,171.66,171.66,0,0,1,68.522,0,169.07,169.07,0,0,1,60.788,25.579,170.5,170.5,0,0,1,61.592,74.795,169.145,169.145,0,0,1,9.906,31.911A171.26,171.26,0,0,1,366.5,170v44.5Z" transform="translate(910 66.5)"/>
    <rect id="Rectangle_10" data-name="Rectangle 10" class="cls-3" width="98" height="464" rx="49" transform="translate(1058 482)"/>
    <path id="Subtraction_3" data-name="Subtraction 3" class="cls-4" d="M318.5,661.5h-340V468h340V661.5Z" transform="translate(958 14)"/>
    <rect id="Rectangle_9" data-name="Rectangle 9" class="cls-5" width="98" height="363" rx="49" transform="translate(1123 233)"/>
    <rect id="Rectangle_11" data-name="Rectangle 11" class="cls-5" width="98" height="363" rx="49" transform="translate(994 233)"/>
    <path id="Subtraction_4" data-name="Subtraction 4" class="cls-6" d="M124.259,111h-98V64a49,49,0,1,1,98,0v47Z" transform="translate(968 170)"/>
    <path id="Subtraction_5" data-name="Subtraction 5" class="cls-6" d="M87.646,111h-98V64a48.959,48.959,0,0,1,49-49,48.959,48.959,0,0,1,49,49Z" transform="translate(1133 170)"/>
    <path id="Subtraction_6" data-name="Subtraction 6" class="cls-7" d="M37,489a48.958,48.958,0,0,1-49-49V375H86v65a48.959,48.959,0,0,1-49,49Z" transform="translate(1135 108)"/>
    <path id="Subtraction_7" data-name="Subtraction 7" class="cls-7" d="M37,489a48.958,48.958,0,0,1-49-49V375H86v65a48.959,48.959,0,0,1-49,49Z" transform="translate(1006 108)"/>
  </g>
</svg>
