<svg xmlns="http://www.w3.org/2000/svg" viewBox="0 0 582.266 542.042">
  <defs>
    <style>
      .cls-1 {
        fill: #906f30;
        stroke: #707070;
      }

      .cls-2 {
        fill: #ffef2e;
      }

      .cls-3 {
        stroke: none;
      }

      .cls-4 {
        fill: none;
      }
    </style>
  </defs>
  <g id="Group_4" data-name="Group 4" transform="translate(-86.061 46.889)">
    <g id="bottom" transform="matrix(0.819, 0.574, -0.574, 0.819, 340.358, 127.068)">
      <rect id="Rectangle_1" data-name="Rectangle 1" width="282.046" height="7.071" transform="translate(0 443.353) rotate(-81)"/>
      <g id="Rectangle_2" data-name="Rectangle 2" class="cls-1" transform="translate(20.551 270.814) rotate(-81)">
        <rect class="cls-3" width="274.19" height="21.998" rx="10.999"/>
        <rect class="cls-4" x="0.5" y="0.5" width="273.19" height="20.998" rx="10.499"/>
      </g>
    </g>
    <path id="sparks" class="cls-2" d="M202.776,346.793,165.516,185.4a34.525,34.525,0,0,1-28.487-4.59L36.263,300.9a1.845,1.845,0,0,1-2.827-2.372L134.08,178.586a34.578,34.578,0,0,1-8.578-10.82L57.055,184.831a3.075,3.075,0,0,1-1.488-5.967L123.211,162a34.659,34.659,0,0,1-.022-19.469L3.826,103.745a5.534,5.534,0,0,1,3.42-10.527l120.79,39.248a34.545,34.545,0,0,1,15.683-12.328L115.945,63.192a2.152,2.152,0,0,1,3.869-1.886l28.05,57.51a34.57,34.57,0,0,1,24.343,2.89L247.354,1.445A3.075,3.075,0,0,1,252.57,4.7L177.378,125.036a34.539,34.539,0,0,1,10.768,14.2l57.69-21a2.153,2.153,0,0,1,1.472,4.046l-57.792,21.035a34.486,34.486,0,0,1,1.163,8.906q0,1.186-.079,2.353.089-.006.181,0l176.384,6.16a1.845,1.845,0,1,1-.129,3.687l-176.384-6.159a1.847,1.847,0,0,1-.486-.083,34.356,34.356,0,0,1-9.792,18.611l76.3,40.567a3.075,3.075,0,1,1-2.886,5.43L175.177,181q-.79.521-1.61,1l37.6,162.861a4.3,4.3,0,1,1-8.389,1.937Zm65.731-114.246a8.609,8.609,0,1,1,8.609,8.609A8.609,8.609,0,0,1,268.507,232.547ZM23.819,190.115a8.609,8.609,0,1,1,8.609,8.609A8.61,8.61,0,0,1,23.819,190.115Zm235.771-77.589a8.609,8.609,0,1,1,8.609,8.609A8.61,8.61,0,0,1,259.591,112.526ZM100.209,40.1a8.609,8.609,0,1,1,8.609,8.609A8.61,8.61,0,0,1,100.209,40.1Z" transform="matrix(0.883, 0.469, -0.469, 0.883, 342.568, -46.889)"/>
    <path id="stars" class="cls-2" d="M205.25,218.675l-13.636,6.264,3.323-14.633-10.171-11.033,14.944-1.361,7.349-13.083,5.913,13.791,14.713,2.948L216.4,211.452l1.743,14.9ZM20.18,127.391,6.746,133.563l3.274-14.416L0,108.277l14.72-1.34,7.241-12.891,5.825,13.588,14.5,2.9-11.121,9.738,1.717,14.684ZM165.633,35.248l-14.2,6.523,3.461-15.239L144.3,15.043l15.561-1.418L167.518,0l6.157,14.362L189,17.432,177.241,27.725l1.816,15.521Z" transform="matrix(0.883, 0.469, -0.469, 0.883, 341.559, -10.499)"/>
  </g>
</svg>
