<svg xmlns="http://www.w3.org/2000/svg" viewBox="0 0 672.022 307.566">
  <defs>
    <style>
      .cls-1 {
        fill: #3e57ac;
        stroke-width: 4px;
      }

      .cls-1, .cls-2 {
        stroke: #000;
      }

      .cls-2 {
        fill: #881b1b;
        stroke-width: 5px;
      }

      .cls-3 {
        fill: #fff;
      }

      .cls-4 {
        stroke: #707070;
      }

      .cls-5, .cls-6, .cls-8 {
        stroke: none;
      }

      .cls-6 {
        fill: #707070;
      }

      .cls-7 {
        fill: none;
      }
    </style>
  </defs>
  <g id="Group_11" data-name="Group 11" transform="translate(-79 -56.01)">
    <g id="Subtraction_1" data-name="Subtraction 1" transform="translate(329.859 189.466)">
      <path class="cls-5" d="M 172.2553405761719 95.20993804931641 C 163.8691101074219 80.67024230957031 151.8811798095703 68.43779754638672 137.4842834472656 59.7515754699707 C 129.9323883056641 55.19518661499023 121.8112335205078 51.67333602905273 113.3463668823242 49.28385925292969 C 104.6126708984375 46.81846618652344 95.53919219970703 45.56842422485352 86.37799835205078 45.56842422485352 C 77.21673583984375 45.56842422485352 68.14323425292969 46.81848907470703 59.40951919555664 49.28390121459961 C 50.9447135925293 51.67335891723633 42.8234977722168 55.19522857666016 35.27143096923828 59.75166320800781 C 20.87695693969727 68.43645477294922 8.88898754119873 80.66802215576172 0.5012538433074951 95.20576477050781 L 0.5000029802322388 0.5000115633010864 L 172.2553405761719 0.5000115633010864 L 172.2553405761719 95.20993804931641 Z"/>
      <path class="cls-6" d="M 171.7553558349609 93.37638854980469 L 171.7553558349609 0.9999918341636658 L 1.000024080276489 0.9999918341636658 L 1.001213073730469 93.37268829345703 C 9.376686096191406 79.45706176757812 21.07234573364258 67.73460388183594 35.01314926147461 59.32355880737305 C 42.60344314575195 54.74403762817383 50.76587295532227 51.20431137084961 59.2736701965332 48.80271911621094 C 68.05155944824219 46.32481002807617 77.17076110839844 45.06842422485352 86.37799072265625 45.06842422485352 C 95.58516693115234 45.06842422485352 104.7043533325195 46.32481002807617 113.4821929931641 48.80267333984375 C 121.9900588989258 51.20426559448242 130.1524505615234 54.74396896362305 137.7425842285156 59.32344818115234 C 151.6857757568359 67.73595428466797 163.3812255859375 79.45885467529297 171.7553558349609 93.37638854980469 M 172.7540740966797 97.11190032958984 C 164.3776245117188 81.92003631591797 152.0922393798828 69.14910888671875 137.2259826660156 60.17967224121094 C 129.7123260498047 55.64635467529297 121.6323547363281 52.14237976074219 113.2105331420898 49.76506042480469 C 104.5210800170898 47.31214904785156 95.49333190917969 46.06842422485352 86.37799072265625 46.06842422485352 C 77.26267242431641 46.06842422485352 68.23487854003906 47.31214904785156 59.54535293579102 49.76510620117188 C 51.12344360351562 52.1424446105957 43.04344177246094 55.64646911621094 35.52973937988281 60.17978668212891 C 20.6650562286377 69.14823913574219 8.379510879516602 81.9183349609375 0.001261197146959603 97.10948944091797 L 1.119717671826947e-05 -8.195356713258661e-06 L 172.7553558349609 -8.195356713258661e-06 L 172.7553558349609 97.11157989501953 L 172.7540740966797 97.11190032958984 Z"/>
    </g>
    <g id="Ellipse_1" data-name="Ellipse 1" class="cls-1" transform="translate(97.486 74.973)">
      <circle class="cls-5" cx="141.931" cy="141.931" r="141.931"/>
      <circle class="cls-7" cx="141.931" cy="141.931" r="139.931"/>
    </g>
    <g id="Ellipse_2" data-name="Ellipse 2" class="cls-2" transform="translate(444.352 74.973)">
      <circle class="cls-5" cx="141.931" cy="141.931" r="141.931"/>
      <circle class="cls-7" cx="141.931" cy="141.931" r="139.431"/>
    </g>
    <g id="Group_3" data-name="Group 3" transform="translate(258.721 56.01) rotate(22)">
      <path id="Path_1" data-name="Path 1" class="cls-3" d="M25.357,50.825,0,41.432,22.88,27.02,23.98,0,44.757,17.306,70.792,10,60.754,35.111l14.991,22.5-26.982-1.79L31.993,77.038Z" transform="translate(0.264 0.243)"/>
      <path id="Path_2" data-name="Path 2" class="cls-3" d="M24.352.487,44.9,17.6l.094.08.12-.033,25.746-7.222L60.93,35.253l-.047.115.068.1L75.778,57.725,49.1,55.957l-.122-.007-.078.1L32.314,77.024,25.751,51.1l-.031-.12-.115-.042L.53,41.646,23.156,27.394l.1-.066,0-.125L24.352.487M24.135,0l-1.1,27.194L0,41.7l25.522,9.455L32.2,77.539l16.88-21.352,27.157,1.8L61.149,35.337l10.1-25.273L45.047,17.419,24.135,0Z"/>
    </g>
    <g id="Group_4" data-name="Group 4" transform="translate(218.75 237.573) rotate(22)">
      <path id="Path_1-2" data-name="Path 1" class="cls-3" d="M25.357,50.825,0,41.432,22.88,27.02,23.98,0,44.757,17.306,70.792,10,60.754,35.111l14.991,22.5-26.982-1.79L31.993,77.038Z" transform="translate(0.264 0.243)"/>
      <path id="Path_2-2" data-name="Path 2" class="cls-3" d="M24.352.487,44.9,17.6l.094.08.12-.033,25.746-7.222L60.93,35.253l-.047.115.068.1L75.778,57.725,49.1,55.957l-.122-.007-.078.1L32.314,77.024,25.751,51.1l-.031-.12-.115-.042L.53,41.646,23.156,27.394l.1-.066,0-.125L24.352.487M24.135,0l-1.1,27.194L0,41.7l25.522,9.455L32.2,77.539l16.88-21.352,27.157,1.8L61.149,35.337l10.1-25.273L45.047,17.419,24.135,0Z"/>
    </g>
    <g id="Group_5" data-name="Group 5" transform="translate(146.261 56.01) rotate(22)">
      <path id="Path_1-3" data-name="Path 1" class="cls-3" d="M25.357,50.825,0,41.432,22.88,27.02,23.98,0,44.757,17.306,70.792,10,60.754,35.111l14.991,22.5-26.982-1.79L31.993,77.038Z" transform="translate(0.264 0.243)"/>
      <path id="Path_2-3" data-name="Path 2" class="cls-3" d="M24.352.487,44.9,17.6l.094.08.12-.033,25.746-7.222L60.93,35.253l-.047.115.068.1L75.778,57.725,49.1,55.957l-.122-.007-.078.1L32.314,77.024,25.751,51.1l-.031-.12-.115-.042L.53,41.646,23.156,27.394l.1-.066,0-.125L24.352.487M24.135,0l-1.1,27.194L0,41.7l25.522,9.455L32.2,77.539l16.88-21.352,27.157,1.8L61.149,35.337l10.1-25.273L45.047,17.419,24.135,0Z"/>
    </g>
    <g id="Group_6" data-name="Group 6" transform="translate(284.465 139.34) rotate(22)">
      <path id="Path_1-4" data-name="Path 1" class="cls-3" d="M25.357,50.825,0,41.432,22.88,27.02,23.98,0,44.757,17.306,70.792,10,60.754,35.111l14.991,22.5-26.982-1.79L31.993,77.038Z" transform="translate(0.264 0.243)"/>
      <path id="Path_2-4" data-name="Path 2" class="cls-3" d="M24.352.487,44.9,17.6l.094.08.12-.033,25.746-7.222L60.93,35.253l-.047.115.068.1L75.778,57.725,49.1,55.957l-.122-.007-.078.1L32.314,77.024,25.751,51.1l-.031-.12-.115-.042L.53,41.646,23.156,27.394l.1-.066,0-.125L24.352.487M24.135,0l-1.1,27.194L0,41.7l25.522,9.455L32.2,77.539l16.88-21.352,27.157,1.8L61.149,35.337l10.1-25.273L45.047,17.419,24.135,0Z"/>
    </g>
    <g id="Group_7" data-name="Group 7" transform="translate(196.394 131.21) rotate(22)">
      <path id="Path_1-5" data-name="Path 1" class="cls-3" d="M25.357,50.825,0,41.432,22.88,27.02,23.98,0,44.757,17.306,70.792,10,60.754,35.111l14.991,22.5-26.982-1.79L31.993,77.038Z" transform="translate(0.264 0.243)"/>
      <path id="Path_2-5" data-name="Path 2" class="cls-3" d="M24.352.487,44.9,17.6l.094.08.12-.033,25.746-7.222L60.93,35.253l-.047.115.068.1L75.778,57.725,49.1,55.957l-.122-.007-.078.1L32.314,77.024,25.751,51.1l-.031-.12-.115-.042L.53,41.646,23.156,27.394l.1-.066,0-.125L24.352.487M24.135,0l-1.1,27.194L0,41.7l25.522,9.455L32.2,77.539l16.88-21.352,27.157,1.8L61.149,35.337l10.1-25.273L45.047,17.419,24.135,0Z"/>
    </g>
    <g id="Group_8" data-name="Group 8" transform="translate(126.614 152.889) rotate(22)">
      <path id="Path_1-6" data-name="Path 1" class="cls-3" d="M25.357,50.825,0,41.432,22.88,27.02,23.98,0,44.757,17.306,70.792,10,60.754,35.111l14.991,22.5-26.982-1.79L31.993,77.038Z" transform="translate(0.264 0.243)"/>
      <path id="Path_2-6" data-name="Path 2" class="cls-3" d="M24.352.487,44.9,17.6l.094.08.12-.033,25.746-7.222L60.93,35.253l-.047.115.068.1L75.778,57.725,49.1,55.957l-.122-.007-.078.1L32.314,77.024,25.751,51.1l-.031-.12-.115-.042L.53,41.646,23.156,27.394l.1-.066,0-.125L24.352.487M24.135,0l-1.1,27.194L0,41.7l25.522,9.455L32.2,77.539l16.88-21.352,27.157,1.8L61.149,35.337l10.1-25.273L45.047,17.419,24.135,0Z"/>
    </g>
    <g id="Group_9" data-name="Group 9" transform="translate(126.614 253.155) rotate(22)">
      <path id="Path_1-7" data-name="Path 1" class="cls-3" d="M25.357,50.825,0,41.432,22.88,27.02,23.98,0,44.757,17.306,70.792,10,60.754,35.111l14.991,22.5-26.982-1.79L31.993,77.038Z" transform="translate(0.264 0.243)"/>
      <path id="Path_2-7" data-name="Path 2" class="cls-3" d="M24.352.487,44.9,17.6l.094.08.12-.033,25.746-7.222L60.93,35.253l-.047.115.068.1L75.778,57.725,49.1,55.957l-.122-.007-.078.1L32.314,77.024,25.751,51.1l-.031-.12-.115-.042L.53,41.646,23.156,27.394l.1-.066,0-.125L24.352.487M24.135,0l-1.1,27.194L0,41.7l25.522,9.455L32.2,77.539l16.88-21.352,27.157,1.8L61.149,35.337l10.1-25.273L45.047,17.419,24.135,0Z"/>
    </g>
    <g id="Group_10" data-name="Group 10" transform="translate(308.854 237.573) rotate(22)">
      <path id="Path_1-8" data-name="Path 1" class="cls-3" d="M25.357,50.825,0,41.432,22.88,27.02,23.98,0,44.757,17.306,70.792,10,60.754,35.111l14.991,22.5-26.982-1.79L31.993,77.038Z" transform="translate(0.264 0.243)"/>
      <path id="Path_2-8" data-name="Path 2" class="cls-3" d="M24.352.487,44.9,17.6l.094.08.12-.033,25.746-7.222L60.93,35.253l-.047.115.068.1L75.778,57.725,49.1,55.957l-.122-.007-.078.1L32.314,77.024,25.751,51.1l-.031-.12-.115-.042L.53,41.646,23.156,27.394l.1-.066,0-.125L24.352.487M24.135,0l-1.1,27.194L0,41.7l25.522,9.455L32.2,77.539l16.88-21.352,27.157,1.8L61.149,35.337l10.1-25.273L45.047,17.419,24.135,0Z"/>
    </g>
    <rect id="Rectangle_4" data-name="Rectangle 4" class="cls-3" width="263.537" height="33.196" transform="translate(459.934 98.007)"/>
    <rect id="Rectangle_6" data-name="Rectangle 6" class="cls-3" width="312.315" height="33.196" transform="translate(415.898 278.892)"/>
    <rect id="Rectangle_7" data-name="Rectangle 7" class="cls-3" width="279.119" height="33.196" transform="translate(444.352 215.887)"/>
    <rect id="Rectangle_8" data-name="Rectangle 8" class="cls-3" width="312.315" height="33.196" transform="translate(426.061 152.882)"/>
    <g id="Rectangle_2" data-name="Rectangle 2" class="cls-4" transform="translate(718.729 186.078)">
      <rect class="cls-5" width="32.293" height="71.812"/>
      <rect class="cls-7" x="0.5" y="0.5" width="31.293" height="70.812"/>
    </g>
    <g id="Rectangle_3" data-name="Rectangle 3" class="cls-4" transform="translate(79 186.078)">
      <rect class="cls-5" width="27.293" height="71.812"/>
      <rect class="cls-7" x="0.5" y="0.5" width="26.293" height="70.812"/>
    </g>
    <g id="Subtraction_2" data-name="Subtraction 2" transform="translate(97.486 74.973)">
      <path class="cls-5" d="M 141.9306793212891 281.8613586425781 C 132.4352874755859 281.8613586425781 122.9463729858398 280.9048767089844 113.7276000976562 279.0184631347656 C 104.744026184082 277.1801147460938 95.90763854980469 274.4371337890625 87.46395111083984 270.8656921386719 C 79.17271423339844 267.3587951660156 71.17583465576172 263.0181884765625 63.69541168212891 257.9644775390625 C 56.28548812866211 252.9584045410156 49.31740951538086 247.2091827392578 42.98471832275391 240.8764495849609 C 36.65221786499023 234.5439910888672 30.90298652648926 227.5758666992188 25.8967170715332 220.1656799316406 C 20.84283256530762 212.6848754882812 16.50229454040527 204.68798828125 12.99564075469971 196.3972625732422 C 9.424102783203125 187.9531860351562 6.681140899658203 179.1168365478516 4.84287166595459 170.1336059570312 C 2.956486940383911 160.9149169921875 1.999987006187439 151.4260711669922 1.999987006187439 141.9306793212891 C 1.999987006187439 132.4352111816406 2.956486940383911 122.9463348388672 4.84287166595459 113.7276000976562 C 6.681217670440674 104.7440643310547 9.42421817779541 95.90767669677734 12.99564075469971 87.46395111083984 C 16.50233268737793 79.17306518554688 20.84287071228027 71.17617797851562 25.89675712585449 63.69541168212891 C 30.9029483795166 56.28525543212891 36.65217971801758 49.31718063354492 42.98468017578125 42.98471832275391 C 49.31718063354492 36.65217971801758 56.28525543212891 30.9029483795166 63.69541168212891 25.8967170715332 C 71.17617797851562 20.84287071228027 79.17306518554688 16.50233268737793 87.46391296386719 12.99564075469971 C 95.90767669677734 9.42421817779541 104.7440643310547 6.681217670440674 113.7276000976562 4.84287166595459 C 122.9463348388672 2.956486940383911 132.4352111816406 1.999987006187439 141.9306793212891 1.999987006187439 C 151.4260711669922 1.999987006187439 160.9149169921875 2.956486940383911 170.1336059570312 4.84287166595459 C 179.1168365478516 6.681140899658203 187.9531860351562 9.424102783203125 196.397216796875 12.99564075469971 C 204.68798828125 16.50229454040527 212.6848754882812 20.84283256530762 220.1656799316406 25.89675712585449 C 227.5758666992188 30.90298652648926 234.5439910888672 36.65221786499023 240.8764495849609 42.98471832275391 C 247.2091827392578 49.31740951538086 252.9584045410156 56.28548812866211 257.9644775390625 63.69541168212891 C 263.0181884765625 71.17583465576172 267.3587951660156 79.17271423339844 270.8656921386719 87.46395111083984 C 274.4371337890625 95.90763854980469 277.1801147460938 104.744026184082 279.0184631347656 113.7276000976562 C 280.9048767089844 122.9463729858398 281.8613586425781 132.4352874755859 281.8613586425781 141.9306793212891 C 281.8613586425781 151.426025390625 280.9048767089844 160.9148712158203 279.0184631347656 170.1336059570312 C 277.1801147460938 179.1170959472656 274.4371337890625 187.9534454345703 270.8656921386719 196.397216796875 C 267.35888671875 204.6882934570312 263.0182495117188 212.6851348876953 257.9644775390625 220.1656799316406 C 252.9584045410156 227.57568359375 247.2091827392578 234.5437927246094 240.8764801025391 240.8764495849609 C 234.5437927246094 247.2091827392578 227.57568359375 252.9584045410156 220.1656799316406 257.9644470214844 C 212.6851348876953 263.0182495117188 204.6882934570312 267.35888671875 196.397216796875 270.8656921386719 C 187.9534454345703 274.4371337890625 179.1170959472656 277.1801147460938 170.1336059570312 279.0184631347656 C 160.9148712158203 280.9048767089844 151.426025390625 281.8613586425781 141.9306793212891 281.8613586425781 Z M 141.9306793212891 13.58217906951904 C 133.2234802246094 13.58217906951904 124.521369934082 14.45948696136475 116.0660247802734 16.18971824645996 C 107.8242568969727 17.87621688842773 99.71748352050781 20.39267921447754 91.97090911865234 23.66921806335449 C 84.36518096923828 26.88617897033691 77.02971649169922 30.86771774291992 70.16829681396484 35.50321960449219 C 63.37260055541992 40.09425735473633 56.98213958740234 45.3668327331543 51.17448806762695 51.1744499206543 C 45.3668327331543 56.98213958740234 40.09425735473633 63.37260055541992 35.50317764282227 70.16829681396484 C 30.86771774291992 77.02971649169922 26.88617897033691 84.36518096923828 23.66921806335449 91.97090911865234 C 20.39267921447754 99.71748352050781 17.87621688842773 107.8242568969727 16.18971824645996 116.0660247802734 C 14.45948696136475 124.521369934082 13.58217906951904 133.2234802246094 13.58217906951904 141.9306793212891 C 13.58217906951904 150.6378021240234 14.45948696136475 159.3398284912109 16.18971824645996 167.7951812744141 C 17.87621688842773 176.0369415283203 20.3927173614502 184.1437225341797 23.66921806335449 191.8902130126953 C 26.88617897033691 199.4959411621094 30.86771774291992 206.8314056396484 35.50321960449219 213.6928405761719 C 40.09433364868164 220.4886016845703 45.36690902709961 226.8790588378906 51.1744499206543 232.6866760253906 C 56.98198699951172 238.4942169189453 63.37240982055664 243.7668304443359 70.16829681396484 248.3580322265625 C 77.02983093261719 252.9936370849609 84.36529541015625 256.9751892089844 91.97090911865234 260.1921081542969 C 99.71779632568359 263.46875 107.8245620727539 265.9852294921875 116.0660629272461 267.6716003417969 C 124.5215606689453 269.4019165039062 133.2236785888672 270.2792053222656 141.9306793212891 270.2792053222656 C 150.6376342773438 270.2792053222656 159.3397216796875 269.4019165039062 167.7951812744141 267.6716003417969 C 176.0365600585938 265.9852294921875 184.1433258056641 263.4687194824219 191.8902130126953 260.1921081542969 C 199.4957580566406 256.9752197265625 206.8312225341797 252.9936828613281 213.6928405761719 248.3580322265625 C 220.4888763427734 243.7667236328125 226.8793334960938 238.4940948486328 232.6867218017578 232.6866760253906 C 238.4940948486328 226.8793334960938 243.7667236328125 220.4888763427734 248.3580322265625 213.6928405761719 C 252.9936828613281 206.8312225341797 256.9752197265625 199.4957580566406 260.1921081542969 191.8902130126953 C 263.4687194824219 184.1433258056641 265.9852294921875 176.0365600585938 267.6716003417969 167.7951812744141 C 269.4019165039062 159.3397216796875 270.2792053222656 150.6376342773438 270.2792053222656 141.9306793212891 C 270.2792053222656 133.2236785888672 269.4019165039062 124.5215606689453 267.6716003417969 116.0660247802734 C 265.9852294921875 107.8245620727539 263.46875 99.71779632568359 260.1921081542969 91.97090911865234 C 256.9751892089844 84.36529541015625 252.9936370849609 77.02983093261719 248.3580322265625 70.16829681396484 C 243.7668304443359 63.37240982055664 238.4942169189453 56.98198699951172 232.6867218017578 51.1744499206543 C 226.8790588378906 45.36690902709961 220.4886016845703 40.09433364868164 213.6928405761719 35.50321960449219 C 206.8314056396484 30.86771774291992 199.4959411621094 26.88617897033691 191.8902130126953 23.66921806335449 C 184.1437225341797 20.3927173614502 176.0369415283203 17.87621688842773 167.7951812744141 16.18971824645996 C 159.3398284912109 14.45948696136475 150.6378021240234 13.58217906951904 141.9306793212891 13.58217906951904 Z"/>
      <path class="cls-8" d="M 141.9306793212891 279.8613586425781 C 151.2916412353516 279.8613586425781 160.6455688476562 278.9185180664062 169.7326354980469 277.0590209960938 C 178.5867919921875 275.2471923828125 187.2959136962891 272.5437316894531 195.6181335449219 269.023681640625 C 203.7902526855469 265.567138671875 211.6725311279297 261.2887268066406 219.0460662841797 256.3072204589844 C 226.3506011962891 251.3724060058594 233.2195587158203 245.7049560546875 239.4622497558594 239.4622497558594 C 245.7049560546875 233.2195587158203 251.3724060058594 226.3506011962891 256.3072204589844 219.0460662841797 C 261.2887268066406 211.6725311279297 265.567138671875 203.7902526855469 269.023681640625 195.6181030273438 C 272.5437316894531 187.2959136962891 275.2471923828125 178.5867919921875 277.0590209960938 169.7326812744141 C 278.9185180664062 160.6455688476562 279.8613586425781 151.2916412353516 279.8613586425781 141.9306793212891 C 279.8613586425781 132.5696868896484 278.9185180664062 123.2156829833984 277.0590209960938 114.1285629272461 C 275.2471923828125 105.2742919921875 272.5436706542969 96.56517791748047 269.023681640625 88.24302673339844 C 265.5670776367188 80.07075500488281 261.2886352539062 72.18844604492188 256.3072204589844 64.81502532958984 C 251.3724060058594 57.51060104370117 245.7049560546875 50.6416015625 239.4622497558594 44.39891052246094 C 233.2197875976562 38.15644836425781 226.3507995605469 32.48898696899414 219.0460968017578 27.55398750305176 C 211.6722564697266 22.57237243652344 203.7899475097656 18.29398727416992 195.6181335449219 14.8376407623291 C 187.2956848144531 11.31756401062012 178.5865325927734 8.61406421661377 169.7326812744141 6.802294731140137 C 160.6455993652344 4.942832946777344 151.2916717529297 3.999987125396729 141.9306793212891 3.999987125396729 C 132.5695953369141 3.999987125396729 123.2155990600586 4.942832946777344 114.1285629272461 6.802294731140137 C 105.2743301391602 8.614140510559082 96.56521606445312 11.31764125823975 88.24302673339844 14.83767890930176 C 80.07110595703125 18.29402542114258 72.18879699707031 22.57241058349609 64.81502532958984 27.55398750305176 C 57.51037216186523 32.48894882202148 50.64137268066406 38.15641021728516 44.39891052246094 44.39891052246094 C 38.15641021728516 50.64137268066406 32.48894882202148 57.51037216186523 27.55398750305176 64.81498718261719 C 22.57241058349609 72.18879699707031 18.29402542114258 80.07110595703125 14.8376407623291 88.24306488037109 C 11.31764125823975 96.56521606445312 8.614140510559082 105.2743301391602 6.802294731140137 114.1285247802734 C 4.942832946777344 123.2155990600586 3.999987125396729 132.5695953369141 3.999987125396729 141.9306793212891 C 3.999987125396729 151.2916717529297 4.942832946777344 160.6455993652344 6.802294731140137 169.7326354980469 C 8.61406421661377 178.5865325927734 11.31756401062012 187.2956848144531 14.83767890930176 195.6181335449219 C 18.29398727416992 203.7899475097656 22.57237243652344 211.6722564697266 27.55398750305176 219.0460662841797 C 32.48898696899414 226.3507995605469 38.15644836425781 233.2197875976562 44.39891052246094 239.4622497558594 C 50.6416015625 245.7049560546875 57.51060104370117 251.3724060058594 64.81502532958984 256.3072204589844 C 72.18844604492188 261.2886352539062 80.07075500488281 265.5670776367188 88.24306488037109 269.023681640625 C 96.56517791748047 272.5436706542969 105.2742919921875 275.2471923828125 114.1285247802734 277.0590209960938 C 123.2156829833984 278.9185180664062 132.5696868896484 279.8613586425781 141.9306793212891 279.8613586425781 M 141.9306793212891 11.58217906951904 C 150.7721862792969 11.58217906951904 159.6091461181641 12.47314071655273 168.1961364746094 14.23029518127441 C 176.5672607421875 15.94329452514648 184.8012237548828 18.4992561340332 192.6693267822266 21.82721710205078 C 200.3940277099609 25.09448623657227 207.8440246582031 29.13817977905273 214.8124542236328 33.845947265625 C 221.7137145996094 38.50833129882812 228.2032623291016 43.86267852783203 234.1009063720703 49.76025772094727 C 239.9984436035156 55.65775680541992 245.3527984619141 62.14733505249023 250.0152893066406 69.04867553710938 C 254.7231750488281 76.01721954345703 258.7668762207031 83.46725463867188 262.0341491699219 91.19183349609375 C 265.3621826171875 99.06029510498047 267.9181518554688 107.2942962646484 269.6310119628906 115.6650619506836 C 271.3882141113281 124.2522964477539 272.2792053222656 133.0892944335938 272.2792053222656 141.9306793212891 C 272.2792053222656 150.7720184326172 271.3882141113281 159.6090240478516 269.6310119628906 168.1961059570312 C 267.9181518554688 176.5668640136719 265.3621826171875 184.8008270263672 262.0340881347656 192.6692962646484 C 258.7669372558594 200.393798828125 254.7232208251953 207.8438262939453 250.0152893066406 214.8124542236328 C 245.3527221679688 221.7139434814453 239.9983367919922 228.2035217285156 234.1009063720703 234.1009063720703 C 228.2035217285156 239.9983367919922 221.7139434814453 245.3527221679688 214.8124542236328 250.0152893066406 C 207.8438262939453 254.7232208251953 200.393798828125 258.7669372558594 192.6692962646484 262.0341491699219 C 184.8008270263672 265.3621826171875 176.5668640136719 267.9181518554688 168.1961364746094 269.6310119628906 C 159.6090240478516 271.3882141113281 150.7720184326172 272.2792053222656 141.9306793212891 272.2792053222656 C 133.0892944335938 272.2792053222656 124.2522964477539 271.3882141113281 115.6651000976562 269.6310119628906 C 107.2942962646484 267.9181518554688 99.06029510498047 265.3621826171875 91.19179534912109 262.0340881347656 C 83.46725463867188 258.7668762207031 76.01721954345703 254.7231750488281 69.04867553710938 250.0152893066406 C 62.14733505249023 245.3527984619141 55.65775680541992 239.9984436035156 49.76021957397461 234.1009063720703 C 43.86267852783203 228.2032623291016 38.50833129882812 221.7137145996094 33.845947265625 214.8124542236328 C 29.13817977905273 207.8440246582031 25.09448623657227 200.3940277099609 21.82721710205078 192.6693267822266 C 18.4992561340332 184.8012237548828 15.94329452514648 176.5672607421875 14.23029518127441 168.1961364746094 C 12.47314071655273 159.6091461181641 11.58217906951904 150.7721862792969 11.58217906951904 141.9306793212891 C 11.58217906951904 133.0890960693359 12.47314071655273 124.252067565918 14.23029518127441 115.6651000976562 C 15.94329452514648 107.2939834594727 18.4992561340332 99.05998992919922 21.82721710205078 91.19179534912109 C 25.09448623657227 83.46710205078125 29.13817977905273 76.01710510253906 33.845947265625 69.04867553710938 C 38.50825500488281 62.14752578735352 43.86260223388672 55.6579475402832 49.76025772094727 49.76025772094727 C 55.6579475402832 43.86260223388672 62.14752578735352 38.50825500488281 69.04867553710938 33.845947265625 C 76.01710510253906 29.13817977905273 83.46710205078125 25.09448623657227 91.19183349609375 21.82721710205078 C 99.05998992919922 18.4992561340332 107.2939834594727 15.94329452514648 115.6650619506836 14.23029518127441 C 124.252067565918 12.47314071655273 133.0890960693359 11.58217906951904 141.9306793212891 11.58217906951904 M 141.9306793212891 283.8613586425781 C 132.3009033203125 283.8613586425781 122.6771392822266 282.8912048339844 113.3266372680664 280.9778442382812 C 104.2140274047852 279.1130981445312 95.25041198730469 276.3306884765625 86.68482971191406 272.7076721191406 C 78.27468109130859 269.1504821777344 70.16325378417969 264.7477416992188 62.5757942199707 259.6217041015625 C 55.06037139892578 254.5443725585938 47.99314117431641 248.7133331298828 41.57048797607422 242.2906799316406 C 35.14783477783203 235.8680267333984 29.31687164306641 228.8007507324219 24.23948669433594 221.2852935791016 C 19.11344909667969 213.6976776123047 14.71067905426025 205.5862579345703 11.15364074707031 197.1763305664062 C 7.530717849731445 188.6107940673828 4.748217582702637 179.647216796875 2.883486986160278 170.5345611572266 C 0.9701408743858337 161.1842193603516 -1.298640290769981e-05 151.5604858398438 -1.298640290769981e-05 141.9306793212891 C -1.298640290769981e-05 132.3007965087891 0.9701408743858337 122.6770248413086 2.883486986160278 113.3266372680664 C 4.748256206512451 104.2139511108398 7.530717849731445 95.25029754638672 11.15364074707031 86.68482971191406 C 14.71071815490723 78.27479553222656 19.11344909667969 70.16340637207031 24.23948669433594 62.5757942199707 C 29.31694793701172 55.06021881103516 35.14794921875 47.99298858642578 41.57048797607422 41.57048797607422 C 47.99298858642578 35.14794921875 55.06021881103516 29.31694793701172 62.5757942199707 24.23948669433594 C 70.16340637207031 19.11344909667969 78.27479553222656 14.71071815490723 86.68482971191406 11.15364074707031 C 95.25029754638672 7.530717849731445 104.2139511108398 4.748256206512451 113.3266372680664 2.883486986160278 C 122.6770248413086 0.9701408743858337 132.3007965087891 -1.298640290769981e-05 141.9306793212891 -1.298640290769981e-05 C 151.5604858398438 -1.298640290769981e-05 161.1842193603516 0.9701408743858337 170.5345611572266 2.883486986160278 C 179.647216796875 4.748217582702637 188.6107940673828 7.530717849731445 197.1763305664062 11.15364074707031 C 205.5862579345703 14.71067905426025 213.6976776123047 19.11344909667969 221.2852935791016 24.23948669433594 C 228.8007507324219 29.31687164306641 235.8680267333984 35.14783477783203 242.2906799316406 41.57048797607422 C 248.7133331298828 47.99314117431641 254.5443725585938 55.06037139892578 259.6217041015625 62.5757942199707 C 264.7477416992188 70.16325378417969 269.1504821777344 78.27468109130859 272.7076721191406 86.68482971191406 C 276.3306884765625 95.25041198730469 279.1130981445312 104.2140274047852 280.9778442382812 113.3266372680664 C 282.8912048339844 122.6771392822266 283.8613586425781 132.3009033203125 283.8613586425781 141.9306793212891 C 283.8613586425781 151.5603790283203 282.8912048339844 161.1840972900391 280.9778442382812 170.5345611572266 C 279.1130981445312 179.6471405029297 276.3306884765625 188.6107177734375 272.7076721191406 197.1763305664062 C 269.1505126953125 205.5864105224609 264.7477416992188 213.6978302001953 259.6217041015625 221.2852935791016 C 254.5443267822266 228.8008728027344 248.7133331298828 235.8680572509766 242.2906799316406 242.2906799316406 C 235.8680572509766 248.7133331298828 228.8008728027344 254.5443267822266 221.2852935791016 259.6217041015625 C 213.6978302001953 264.7477416992188 205.5864105224609 269.1505126953125 197.1763305664062 272.7076721191406 C 188.6107177734375 276.3306884765625 179.6471405029297 279.1130981445312 170.5345611572266 280.9778442382812 C 161.1840972900391 282.8912048339844 151.5603790283203 283.8613586425781 141.9306793212891 283.8613586425781 Z M 141.9306793212891 15.58217906951904 C 133.3580322265625 15.58217906951904 124.7907562255859 16.4457950592041 116.4669876098633 18.14910316467285 C 108.3545989990234 19.80914115905762 100.3750610351562 22.28610229492188 92.75002288818359 25.51121711730957 C 85.26325988769531 28.67787170410156 78.04237365722656 32.59721755981445 71.28791046142578 37.16044998168945 C 64.59760284423828 41.68029403686523 58.30625534057617 46.87113952636719 52.58868026733398 52.58868026733398 C 46.87113952636719 58.30625534057617 41.68029403686523 64.59760284423828 37.16044998168945 71.28791046142578 C 32.59721755981445 78.04237365722656 28.67787170410156 85.26325988769531 25.51121711730957 92.75002288818359 C 22.28610229492188 100.3750610351562 19.80914115905762 108.3545989990234 18.14910316467285 116.4669876098633 C 16.4457950592041 124.7907562255859 15.58217906951904 133.3580322265625 15.58217906951904 141.9306793212891 C 15.58217906951904 150.5032958984375 16.4457950592041 159.0704498291016 18.14910316467285 167.3942108154297 C 19.80914115905762 175.5065612792969 22.28610229492188 183.4860992431641 25.51121711730957 191.1110992431641 C 28.67787170410156 198.5978698730469 32.59721755981445 205.8187561035156 37.16044998168945 212.5732116699219 C 41.6804084777832 219.2636413574219 46.87121963500977 225.5549468994141 52.58868026733398 231.2724914550781 C 58.30621719360352 236.9900207519531 64.59752655029297 242.1808319091797 71.28791046142578 246.7007904052734 C 78.04252624511719 251.2641448974609 85.26345062255859 255.1835327148438 92.75002288818359 258.35009765625 C 100.3751831054688 261.5752563476562 108.3547210693359 264.05224609375 116.4669876098633 265.7122192382812 C 124.7909088134766 267.4155578613281 133.3581848144531 268.2792053222656 141.9306793212891 268.2792053222656 C 150.503173828125 268.2792053222656 159.0703735351562 267.4155578613281 167.3942108154297 265.7122192382812 C 175.5063781738281 264.05224609375 183.4859161376953 261.5752563476562 191.1110992431641 258.35009765625 C 198.5977172851562 255.1835327148438 205.818603515625 251.2641448974609 212.5732116699219 246.7007904052734 C 219.263671875 242.1808013916016 225.5550231933594 236.989990234375 231.2724914550781 231.2724914550781 C 236.989990234375 225.5550231933594 242.1808013916016 219.263671875 246.7007904052734 212.5732116699219 C 251.2641448974609 205.818603515625 255.1835327148438 198.5977172851562 258.35009765625 191.1110992431641 C 261.5752563476562 183.4859161376953 264.05224609375 175.5063781738281 265.7122192382812 167.3942108154297 C 267.4155578613281 159.0703735351562 268.2792053222656 150.503173828125 268.2792053222656 141.9306793212891 C 268.2792053222656 133.3581848144531 267.4155578613281 124.7909088134766 265.7122192382812 116.4669876098633 C 264.05224609375 108.3547210693359 261.5752563476562 100.3751831054688 258.35009765625 92.75002288818359 C 255.1835327148438 85.26345062255859 251.2641448974609 78.04252624511719 246.7007904052734 71.28791046142578 C 242.1808319091797 64.59752655029297 236.9900207519531 58.30621719360352 231.2724914550781 52.58868026733398 C 225.5549468994141 46.87121963500977 219.2636413574219 41.6804084777832 212.5732116699219 37.16044998168945 C 205.8187561035156 32.59721755981445 198.5978698730469 28.67787170410156 191.1110992431641 25.51121711730957 C 183.4860992431641 22.28610229492188 175.5065612792969 19.80914115905762 167.3942108154297 18.14910316467285 C 159.0704498291016 16.4457950592041 150.5032958984375 15.58217906951904 141.9306793212891 15.58217906951904 Z"/>
    </g>
    <g id="Subtraction_3" data-name="Subtraction 3" transform="translate(434.19 69.553)">
      <path class="cls-5" d="M 147.0115966796875 292.0232238769531 C 137.1715545654297 292.0232238769531 127.3381729125977 291.031982421875 117.7845230102539 289.0770263671875 C 108.4746704101562 287.1719360351562 99.31740570068359 284.3293151855469 90.567138671875 280.628173828125 C 81.97483062744141 276.9939880371094 73.68759918212891 272.4957885742188 65.93555450439453 267.258544921875 C 58.25655746459961 262.0707092285156 51.03548049926758 256.1127014160156 44.47286605834961 249.5500946044922 C 37.91040420532227 242.9876708984375 31.95244216918945 235.7665557861328 26.76444244384766 228.0873718261719 C 21.52713584899902 220.3349761962891 17.0289421081543 212.0477447509766 13.39490413665771 203.4558258056641 C 9.693673133850098 194.7050933837891 6.851096630096436 185.5478210449219 4.946096897125244 176.2384796142578 C 2.991212129592896 166.6851806640625 2.000019788742065 156.8518218994141 2.000019788742065 147.0115966796875 C 2.000019788742065 137.1712493896484 2.991212129592896 127.3378677368164 4.946096897125244 117.7845230102539 C 6.851212024688721 108.4747924804688 9.693788528442383 99.31752014160156 13.39490413665771 90.567138671875 C 17.02898216247559 81.97509765625 21.52713584899902 73.68782806396484 26.76444244384766 65.93555450439453 C 31.95236587524414 58.25644302368164 37.91032791137695 51.03536605834961 44.47286605834961 44.47286605834961 C 51.03536605834961 37.91032791137695 58.25644302368164 31.95236587524414 65.93555450439453 26.76444244384766 C 73.68782806396484 21.52713584899902 81.97509765625 17.02898216247559 90.56709289550781 13.39490413665771 C 99.31752014160156 9.693788528442383 108.4747924804688 6.851212024688721 117.7845230102539 4.946096897125244 C 127.3378677368164 2.991212129592896 137.1712493896484 2.000019788742065 147.0115966796875 2.000019788742065 C 156.8518218994141 2.000019788742065 166.6851806640625 2.991212129592896 176.2384796142578 4.946096897125244 C 185.5478210449219 6.851096630096436 194.7050933837891 9.693673133850098 203.4558258056641 13.39490413665771 C 212.0477447509766 17.0289421081543 220.3349761962891 21.52713584899902 228.0873718261719 26.76448059082031 C 235.7665557861328 31.95244216918945 242.9876708984375 37.91040420532227 249.5500946044922 44.47286605834961 C 256.1127014160156 51.03548049926758 262.0707092285156 58.25655746459961 267.258544921875 65.93555450439453 C 272.4957885742188 73.68759918212891 276.9939880371094 81.97483062744141 280.628173828125 90.567138671875 C 284.3293151855469 99.31740570068359 287.1719360351562 108.4746704101562 289.0770263671875 117.7845230102539 C 291.031982421875 127.3381729125977 292.0232238769531 137.1715545654297 292.0232238769531 147.0115966796875 C 292.0232238769531 156.8515625 291.031982421875 166.6849060058594 289.0770263671875 176.2384796142578 C 287.1719665527344 185.5481414794922 284.3293762207031 194.7053680419922 280.628173828125 203.4558258056641 C 276.9940490722656 212.0479431152344 272.4958801269531 220.3351745605469 267.258544921875 228.0873718261719 C 262.0705871582031 235.7665557861328 256.1126403808594 242.9876708984375 249.5501403808594 249.5500946044922 C 242.9876708984375 256.1126403808594 235.7665557861328 262.0705871582031 228.0873718261719 267.258544921875 C 220.3351745605469 272.4958801269531 212.0479431152344 276.9940490722656 203.4558715820312 280.628173828125 C 194.7053680419922 284.3293762207031 185.5481414794922 287.1719665527344 176.2384796142578 289.0770263671875 C 166.6849060058594 291.031982421875 156.8515625 292.0232238769531 147.0115966796875 292.0232238769531 Z M 147.0115966796875 14.13998126983643 C 137.9974822998047 14.13998126983643 128.9886779785156 15.0482120513916 120.2353668212891 16.83944320678711 C 111.7033309936523 18.58528900146484 103.310905456543 21.19044303894043 95.29121398925781 24.58248138427734 C 87.41740417480469 27.91282653808594 79.82344055175781 32.03467178344727 72.72032928466797 36.83351898193359 C 65.68513488769531 41.58632659912109 59.06948089599609 47.04471206665039 53.05709838867188 53.05705642700195 C 47.04471206665039 59.06948089599609 41.58632659912109 65.68513488769531 36.83348083496094 72.72032928466797 C 32.03467178344727 79.82344055175781 27.91282653808594 87.41740417480469 24.58248138427734 95.29121398925781 C 21.19044303894043 103.310905456543 18.58528900146484 111.7033309936523 16.83944320678711 120.2353668212891 C 15.0482120513916 128.9886779785156 14.13998126983643 137.9974822998047 14.13998126983643 147.0115966796875 C 14.13998126983643 156.0256042480469 15.0482120513916 165.0343627929688 16.83944320678711 173.7876739501953 C 18.5853271484375 182.3197174072266 21.19044303894043 190.7120971679688 24.58248138427734 198.7317504882812 C 27.91286659240723 206.6056365966797 32.03471374511719 214.1995544433594 36.83351898193359 221.3026275634766 C 41.58648300170898 228.3380126953125 47.04490280151367 234.9537048339844 53.05705642700195 240.9659118652344 C 59.06929016113281 246.9781799316406 65.68498229980469 252.4365997314453 72.72032928466797 257.1895446777344 C 79.82375335693359 261.9885559082031 87.41770935058594 266.1104125976562 95.29121398925781 269.4406433105469 C 103.3110198974609 272.832763671875 111.7034454345703 275.4378967285156 120.2354049682617 277.1837158203125 C 128.9890899658203 278.9749755859375 137.9979095458984 279.8832397460938 147.0115966796875 279.8832397460938 C 156.0252532958984 279.8832397460938 165.0340270996094 278.9749755859375 173.7876739501953 277.1837158203125 C 182.3195648193359 275.4378662109375 190.7119750976562 272.8327026367188 198.7317504882812 269.4406433105469 C 206.6052551269531 266.1104125976562 214.19921875 261.9885559082031 221.3026275634766 257.1895446777344 C 228.3380126953125 252.4365539550781 234.9537048339844 246.9781341552734 240.9659423828125 240.9659423828125 C 246.9781341552734 234.9537048339844 252.4365539550781 228.3380126953125 257.1895446777344 221.3026275634766 C 261.9885559082031 214.19921875 266.1104125976562 206.6052551269531 269.4406433105469 198.7317504882812 C 272.8327026367188 190.7119750976562 275.4378662109375 182.3195648193359 277.1837158203125 173.7876739501953 C 278.9749755859375 165.0340270996094 279.8832397460938 156.0252532958984 279.8832397460938 147.0115966796875 C 279.8832397460938 137.9979095458984 278.9749755859375 128.9890899658203 277.1837158203125 120.2353668212891 C 275.4378967285156 111.7034454345703 272.832763671875 103.3110198974609 269.4406433105469 95.29121398925781 C 266.1104125976562 87.41770935058594 261.9885559082031 79.82375335693359 257.1895446777344 72.72032928466797 C 252.4365997314453 65.68498229980469 246.9781799316406 59.06929016113281 240.9659423828125 53.05705642700195 C 234.9537048339844 47.04490280151367 228.3380126953125 41.58648300170898 221.3026275634766 36.83351898193359 C 214.1995544433594 32.03471374511719 206.6056365966797 27.91286659240723 198.7317504882812 24.58248138427734 C 190.7120971679688 21.19044303894043 182.3197174072266 18.5853271484375 173.7876739501953 16.83944320678711 C 165.0343627929688 15.0482120513916 156.0256042480469 14.13998126983643 147.0115966796875 14.13998126983643 Z"/>
      <path class="cls-8" d="M 147.0115966796875 290.023193359375 C 156.7173004150391 290.023193359375 166.4157562255859 289.0455932617188 175.8375091552734 287.1176452636719 C 185.0178527832031 285.2390441894531 194.0478515625 282.4359436035156 202.6767578125 278.7861328125 C 211.1499328613281 275.2023315429688 219.3225555419922 270.766357421875 226.9677581787109 265.601318359375 C 234.5413818359375 260.4846801757812 241.6633911132812 254.6084747314453 248.1358947753906 248.1358489990234 C 254.6084747314453 241.6633911132812 260.4846801757812 234.5413818359375 265.601318359375 226.9677276611328 C 270.766357421875 219.3225555419922 275.2023315429688 211.1499328613281 278.7861938476562 202.6767578125 C 282.4359436035156 194.0478515625 285.2390441894531 185.0178527832031 287.1176452636719 175.8375091552734 C 289.0455932617188 166.4157562255859 290.023193359375 156.7173004150391 290.023193359375 147.0115966796875 C 290.023193359375 137.3058013916016 289.0455932617188 127.607307434082 287.1176452636719 118.1855163574219 C 285.239013671875 109.005012512207 282.4358825683594 99.97501373291016 278.7861328125 91.34622192382812 C 275.2023315429688 82.87305450439453 270.7662963867188 74.70038604736328 265.601318359375 67.05518341064453 C 260.4846801757812 59.48159790039062 254.6084747314453 52.35963821411133 248.1358947753906 45.88705444335938 C 241.6633453369141 39.41451263427734 234.5413513183594 33.53834533691406 226.9677581787109 28.42172241210938 C 219.3223114013672 23.25663757324219 211.1496429443359 18.82063865661621 202.6767578125 15.23692989349365 C 194.0477600097656 11.58718013763428 185.0177612304688 8.784096717834473 175.8375091552734 6.905513286590576 C 166.4158020019531 4.977554798126221 156.7173461914062 4.00001335144043 147.0115966796875 4.00001335144043 C 137.3057708740234 4.00001335144043 127.6072616577148 4.977554798126221 118.1855163574219 6.905513286590576 C 109.0049285888672 8.7841796875 99.97489166259766 11.5872631072998 91.34618377685547 15.23697185516357 C 82.87313842773438 18.82072257995605 74.70043182373047 23.25672149658203 67.05518341064453 28.42172241210938 C 59.48143005371094 33.53847122192383 52.35947036743164 39.41468048095703 45.88705444335938 45.88705444335938 C 39.41468048095703 52.35947036743164 33.53847122192383 59.48143005371094 28.42172241210938 67.05513763427734 C 23.25672149658203 74.70043182373047 18.82072257995605 82.87313842773438 15.23692989349365 91.34622192382812 C 11.5872631072998 99.97489166259766 8.7841796875 109.0049285888672 6.905513286590576 118.1854705810547 C 4.977554798126221 127.6072616577148 4.00001335144043 137.3057708740234 4.00001335144043 147.0115966796875 C 4.00001335144043 156.7173461914062 4.977554798126221 166.4158020019531 6.905513286590576 175.8375091552734 C 8.784096717834473 185.0177612304688 11.58718013763428 194.0477600097656 15.23697185516357 202.6767578125 C 18.82063865661621 211.1496429443359 23.25663757324219 219.3223114013672 28.42172241210938 226.9677581787109 C 33.53834533691406 234.5413513183594 39.41451263427734 241.6633453369141 45.88705444335938 248.1358947753906 C 52.35963821411133 254.6084747314453 59.48159790039062 260.4846801757812 67.05518341064453 265.601318359375 C 74.70038604736328 270.7662963867188 82.87305450439453 275.2023315429688 91.34626007080078 278.7861938476562 C 99.97501373291016 282.4358825683594 109.005012512207 285.239013671875 118.1855163574219 287.1176452636719 C 127.607307434082 289.0455932617188 137.3058013916016 290.023193359375 147.0115966796875 290.023193359375 M 147.0115966796875 12.13997173309326 C 156.1597595214844 12.13997173309326 165.3034362792969 13.06184673309326 174.1886444091797 14.88001346588135 C 182.8499755859375 16.65238761901855 191.3695983886719 19.2970142364502 199.5108489990234 22.74047088623047 C 207.5035552978516 26.12109756469727 215.2120513916016 30.30513763427734 222.4222259521484 35.17626190185547 C 229.5630493164062 40.00047302246094 236.2778472900391 45.5406379699707 242.3801422119141 51.64288711547852 C 248.4822998046875 57.74501419067383 254.0225067138672 64.45980834960938 258.8468017578125 71.60067749023438 C 263.7179565429688 78.81092834472656 267.9020080566406 86.51947021484375 271.2826232910156 94.51213836669922 C 274.7261657714844 102.6535110473633 277.3708190917969 111.1731796264648 279.1431274414062 119.8344268798828 C 280.9613342285156 128.7198486328125 281.8832702636719 137.8636016845703 281.8832702636719 147.0115966796875 C 281.8832702636719 156.1595611572266 280.9613342285156 165.3032684326172 279.1431274414062 174.1886444091797 C 277.3708190917969 182.8498077392578 274.7261352539062 191.3694305419922 271.2826232910156 199.5108489990234 C 267.9020080566406 207.5034332275391 263.718017578125 215.2119293212891 258.8468017578125 222.4222259521484 C 254.0225982666016 229.5630187988281 248.4824371337891 236.2778015136719 242.3801422119141 242.3801422119141 C 236.2778015136719 248.4824371337891 229.5630187988281 254.0225982666016 222.4222564697266 258.8468017578125 C 215.2119293212891 263.718017578125 207.5034332275391 267.9020080566406 199.5108489990234 271.2826843261719 C 191.3694305419922 274.7261352539062 182.8498077392578 277.3708190917969 174.1886444091797 279.1431274414062 C 165.3032684326172 280.9613342285156 156.1595611572266 281.8832702636719 147.0115966796875 281.8832702636719 C 137.8636016845703 281.8832702636719 128.7198486328125 280.9613342285156 119.83447265625 279.1431274414062 C 111.1731796264648 277.3708190917969 102.6535110473633 274.7261657714844 94.51213836669922 271.2826232910156 C 86.51947021484375 267.9020080566406 78.81092834472656 263.7179565429688 71.60072326660156 258.8468017578125 C 64.45980834960938 254.0225067138672 57.74501419067383 248.4822998046875 51.64288711547852 242.3801422119141 C 45.5406379699707 236.2778472900391 40.00047302246094 229.5630493164062 35.17626190185547 222.4222564697266 C 30.30513763427734 215.2120513916016 26.12109756469727 207.5035552978516 22.74043083190918 199.5108489990234 C 19.2970142364502 191.3695983886719 16.65238761901855 182.8499755859375 14.88001346588135 174.1885986328125 C 13.06184673309326 165.3034362792969 12.13997173309326 156.1597595214844 12.13997173309326 147.0115966796875 C 12.13997173309326 137.8633422851562 13.06184673309326 128.7196350097656 14.88001346588135 119.8344268798828 C 16.65238761901855 111.1730575561523 19.2970142364502 102.6534271240234 22.74047088623047 94.51213836669922 C 26.12109756469727 86.51943206787109 30.30509757995605 78.81089019775391 35.17626190185547 71.60072326660156 C 40.00030517578125 64.46005249023438 45.54047012329102 57.74526214599609 51.64288711547852 51.64288711547852 C 57.74526214599609 45.54047012329102 64.46005249023438 40.00030517578125 71.60067749023438 35.17626190185547 C 78.81089019775391 30.30509757995605 86.51943206787109 26.12109756469727 94.51213836669922 22.74043083190918 C 102.6534271240234 19.2970142364502 111.1730575561523 16.65238761901855 119.83447265625 14.88001346588135 C 128.7196350097656 13.06184673309326 137.8633422851562 12.13997173309326 147.0115966796875 12.13997173309326 M 147.0115966796875 294.023193359375 C 137.0370941162109 294.023193359375 127.0688018798828 293.018310546875 117.3835983276367 291.0364379882812 C 107.9447250366211 289.1049194335938 98.66022491455078 286.222900390625 89.78800964355469 282.4701843261719 C 81.07680511474609 278.7856750488281 72.67501068115234 274.2253112792969 64.81593322753906 268.9158020019531 C 57.03142929077148 263.6566772460938 49.71121978759766 257.616943359375 43.05863952636719 250.9643096923828 C 36.40605545043945 244.3117218017578 30.36634635925293 236.9915161132812 25.10722160339355 229.2069702148438 C 19.79767990112305 221.3477172851562 15.2373046875 212.9459228515625 11.55292987823486 204.2349700927734 C 7.800304889678955 195.3628082275391 4.918221473693848 186.0783538818359 2.986721754074097 176.6394348144531 C 1.004888296127319 166.9543914794922 1.334635453531519e-05 156.9860992431641 1.334635453531519e-05 147.0115966796875 C 1.334635453531519e-05 137.0369720458984 1.004888296127319 127.0686798095703 2.986721754074097 117.3835983276367 C 4.91826343536377 107.9446411132812 7.800304889678955 98.66009521484375 11.55292987823486 89.78800964355469 C 15.23734664916992 81.07692718505859 19.79767990112305 72.67514038085938 25.10722160339355 64.81593322753906 C 30.3664722442627 57.03130340576172 36.40618133544922 49.71109771728516 43.05863952636719 43.05863952636719 C 49.71109771728516 36.40618133544922 57.03130340576172 30.3664722442627 64.81593322753906 25.10722160339355 C 72.67514038085938 19.79767990112305 81.07692718505859 15.23734664916992 89.78800964355469 11.55292987823486 C 98.66009521484375 7.800304889678955 107.9446411132812 4.91826343536377 117.3835983276367 2.986721754074097 C 127.0686798095703 1.004888296127319 137.0369720458984 1.334635453531519e-05 147.0115966796875 1.334635453531519e-05 C 156.9860992431641 1.334635453531519e-05 166.9543914794922 1.004888296127319 176.6394348144531 2.986721754074097 C 186.0783538818359 4.918221473693848 195.3628082275391 7.800304889678955 204.2349700927734 11.55292987823486 C 212.9459228515625 15.2373046875 221.3477172851562 19.79767990112305 229.2069702148438 25.10722160339355 C 236.9915161132812 30.36634635925293 244.3117218017578 36.40605545043945 250.9643096923828 43.05863952636719 C 257.616943359375 49.71121978759766 263.6566772460938 57.03142929077148 268.9158020019531 64.81593322753906 C 274.2253112792969 72.67501068115234 278.7856750488281 81.07680511474609 282.4701843261719 89.78800964355469 C 286.222900390625 98.66022491455078 289.1049194335938 107.9447250366211 291.0364379882812 117.3835983276367 C 293.018310546875 127.0688018798828 294.023193359375 137.0370941162109 294.023193359375 147.0115966796875 C 294.023193359375 156.9860076904297 293.018310546875 166.9542694091797 291.0364379882812 176.6394348144531 C 289.1049194335938 186.0782623291016 286.222900390625 195.3626861572266 282.4701843261719 204.2349700927734 C 278.7857360839844 212.9460906982422 274.225341796875 221.3478851318359 268.9158020019531 229.2069702148438 C 263.6566467285156 236.9915924072266 257.6168823242188 244.3117980957031 250.9643096923828 250.9643096923828 C 244.3117980957031 257.6168823242188 236.9915924072266 263.6566467285156 229.2069702148438 268.9158020019531 C 221.3478851318359 274.225341796875 212.9460906982422 278.7857360839844 204.2349700927734 282.4701843261719 C 195.3626861572266 286.222900390625 186.0782623291016 289.1049194335938 176.6394348144531 291.0364379882812 C 166.9542694091797 293.018310546875 156.9860076904297 294.023193359375 147.0115966796875 294.023193359375 Z M 147.0115966796875 16.13997077941895 C 138.1320495605469 16.13997077941895 129.2581024169922 17.03455543518066 120.636344909668 18.79880523681641 C 112.2335586547852 20.51826286315918 103.9683456420898 23.08392906188965 96.07034301757812 26.42447090148926 C 88.3155517578125 29.70447158813477 80.836181640625 33.76413726806641 73.83992767333984 38.49076461791992 C 66.91009521484375 43.17238998413086 60.3935546875 48.54905319213867 54.47130584716797 54.47130584716797 C 48.54905319213867 60.3935546875 43.17238998413086 66.91009521484375 38.49076461791992 73.83992767333984 C 33.76413726806641 80.836181640625 29.70447158813477 88.3155517578125 26.42447090148926 96.07034301757812 C 23.08392906188965 103.9683456420898 20.51826286315918 112.2335586547852 18.79880523681641 120.636344909668 C 17.03455543518066 129.2581024169922 16.13997077941895 138.1320495605469 16.13997077941895 147.0115966796875 C 16.13997077941895 155.8910980224609 17.03455543518066 164.7649688720703 18.79880523681641 173.38671875 C 20.51826286315918 181.7894287109375 23.08392906188965 190.0546417236328 26.42447090148926 197.95263671875 C 29.70447158813477 205.7073822021484 33.76413726806641 213.186767578125 38.49076461791992 220.1830139160156 C 43.17251205444336 227.1129760742188 48.54913711547852 233.6295166015625 54.47130584716797 239.5517272949219 C 60.39347076416016 245.4739227294922 66.91001129150391 250.8505554199219 73.83992767333984 255.5323028564453 C 80.83634948730469 260.2590026855469 88.31576538085938 264.3186950683594 96.07034301757812 267.5986328125 C 103.9684753417969 270.9392700195312 112.2336349487305 273.5049438476562 120.636344909668 275.2243347167969 C 129.2582702636719 276.9886474609375 138.1321868896484 277.8832702636719 147.0115966796875 277.8832702636719 C 155.8909759521484 277.8832702636719 164.7648468017578 276.9886474609375 173.38671875 275.2243347167969 C 181.7892608642578 273.5049438476562 190.0544281005859 270.9392700195312 197.95263671875 267.5986328125 C 205.7072143554688 264.3186950683594 213.1865997314453 260.2590026855469 220.1830139160156 255.5323028564453 C 227.1130065917969 250.8505096435547 233.6295623779297 245.4738464355469 239.5517272949219 239.5517272949219 C 245.4738464355469 233.6295623779297 250.8505096435547 227.1130065917969 255.5323028564453 220.1830139160156 C 260.2590026855469 213.1865997314453 264.3186950683594 205.7072143554688 267.5986328125 197.95263671875 C 270.9392700195312 190.0544281005859 273.5049438476562 181.7892608642578 275.2243347167969 173.38671875 C 276.9886474609375 164.7648468017578 277.8832702636719 155.8909759521484 277.8832702636719 147.0115966796875 C 277.8832702636719 138.1321868896484 276.9886474609375 129.2582702636719 275.2243347167969 120.636344909668 C 273.5049438476562 112.2336349487305 270.9392700195312 103.9684753417969 267.5986328125 96.07034301757812 C 264.3186950683594 88.31576538085938 260.2590026855469 80.83634948730469 255.5323028564453 73.83992767333984 C 250.8505554199219 66.91001129150391 245.4739227294922 60.39347076416016 239.5517272949219 54.47130584716797 C 233.6295166015625 48.54913711547852 227.1129760742188 43.17251205444336 220.1830139160156 38.49076461791992 C 213.186767578125 33.76413726806641 205.7073822021484 29.70447158813477 197.95263671875 26.42447090148926 C 190.0546417236328 23.08392906188965 181.7894287109375 20.51826286315918 173.38671875 18.79880523681641 C 164.7649688720703 17.03455543518066 155.8910980224609 16.13997077941895 147.0115966796875 16.13997077941895 Z"/>
    </g>
  </g>
</svg>
